SplineFontDB: 3.0
FontName: Bigfont
FullName: Bigfont
FamilyName: Bigfont
Weight: Bold
Copyright: Typeface (c) The Monotype Corporation plc. Data (c) The Monotype Corporation plc/Type Solutions Inc. 1990-1992. All Rights Reserved
Version: 1
ItalicAngle: 0
UnderlinePosition: -323
UnderlineWidth: 215
Ascent: 1638
Descent: 410
InvalidEm: 0
sfntRevision: 0x00010000
LayerCount: 2
Layer: 0 1 "Back" 1
Layer: 1 1 "Fore" 0
XUID: [1021 9 -1655410664 13189490]
StyleMap: 0x0020
FSType: 0
OS2Version: 1
OS2_WeightWidthSlopeOnly: 0
OS2_UseTypoMetrics: 0
CreationTime: 649956253
ModificationTime: 1595340797
PfmFamily: 17
TTFWeight: 700
TTFWidth: 5
LineGap: 67
VLineGap: 0
Panose: 2 11 7 4 2 2 2 2 2 4
OS2TypoAscent: 1491
OS2TypoAOffset: 0
OS2TypoDescent: -431
OS2TypoDOffset: 0
OS2TypoLinegap: 307
OS2WinAscent: 1854
OS2WinAOffset: 0
OS2WinDescent: 434
OS2WinDOffset: 0
HheadAscent: 1854
HheadAOffset: 0
HheadDescent: -434
HheadDOffset: 0
OS2SubXSize: 1434
OS2SubYSize: 1331
OS2SubXOff: 0
OS2SubYOff: 283
OS2SupXSize: 1434
OS2SupYSize: 1331
OS2SupXOff: 0
OS2SupYOff: 977
OS2StrikeYSize: 102
OS2StrikeYPos: 530
OS2FamilyClass: 2053
OS2Vendor: 'Mono'
OS2CodePages: 400001ff.ffff0000
OS2UnicodeRanges: 00007a87.80000000.00000008.00000000
Lookup: 1 1 0 "'init' Initial Forms in Arabic lookup 0" { "'init' Initial Forms in Arabic lookup 0 subtable"  } ['init' ('arab' <'dflt' > ) ]
Lookup: 1 1 0 "'medi' Medial Forms in Arabic lookup 1" { "'medi' Medial Forms in Arabic lookup 1 subtable"  } ['medi' ('arab' <'dflt' > ) ]
Lookup: 1 1 0 "'fina' Terminal Forms in Arabic lookup 2" { "'fina' Terminal Forms in Arabic lookup 2 subtable"  } ['fina' ('arab' <'dflt' > ) ]
Lookup: 4 9 1 "'liga' Standard Ligatures in Arabic lookup 3" { "'liga' Standard Ligatures in Arabic lookup 3 subtable"  } ['liga' ('arab' <'dflt' > ) ]
Lookup: 4 7 1 "'liga' Standard Ligatures in Arabic lookup 4" { "'liga' Standard Ligatures in Arabic lookup 4 subtable"  } ['liga' ('arab' <'dflt' > ) ]

StartChar: exclam
Encoding: 33 33 1
Width: 682
GlyphClass: 2
Flags: W
LayerCount: 2
Fore
SplineSet
257 378 m 1,0,-1
 184 1122 l 1,1,-1
 184 1466 l 1,2,-1
 488 1466 l 1,3,-1
 488 1122 l 1,4,-1
 416 378 l 1,5,-1
 257 378 l 1,0,-1
196 0 m 1,6,-1
 196 281 l 1,7,-1
 477 281 l 1,8,-1
 477 0 l 1,9,-1
 196 0 l 1,6,-1
EndSplineSet
EndChar

StartChar: quotedbl
Encoding: 34 34 2
Width: 971
GlyphClass: 2
Flags: MW
LayerCount: 2
Fore
SplineSet
165 945 m 1,0,-1
 112 1218 l 1,1,-1
 112 1466 l 1,2,-1
 418 1466 l 1,3,-1
 418 1218 l 1,4,-1
 372 945 l 1,5,-1
 165 945 l 1,0,-1
616 945 m 1,6,-1
 563 1218 l 1,7,-1
 563 1466 l 1,8,-1
 869 1466 l 1,9,-1
 869 1218 l 1,10,-1
 823 945 l 1,11,-1
 616 945 l 1,6,-1
EndSplineSet
EndChar

StartChar: numbersign
Encoding: 35 35 3
Width: 1124
GlyphClass: 2
Flags: W
LayerCount: 2
Fore
SplineSet
1126.30761719 -386.423828125 m 5,0,-1
 7.6923828125 -386.423828125 l 5,1,-1
 7.6923828125 -292.173828125 l 5,2,-1
 73.1328125 -292.173828125 l 5,3,-1
 73.1328125 -209.560546875 l 6,4,5
 73.1328125 -123.456054688 73.1328125 -123.456054688 107.897460938 -17.5703125 c 132,-1,6
 142.663085938 88.314453125 142.663085938 88.314453125 268.430664062 291.940429688 c 4,7,8
 363.522460938 445.532226562 363.522460938 445.532226562 387.551757812 509.529296875 c 132,-1,9
 411.580078125 573.525390625 411.580078125 573.525390625 411.580078125 620.068359375 c 4,10,11
 411.580078125 667.775390625 411.580078125 667.775390625 387.551757812 731.190429688 c 132,-1,12
 363.522460938 794.60546875 363.522460938 794.60546875 268.430664062 950.524414062 c 4,13,14
 142.663085938 1154.14941406 142.663085938 1154.14941406 107.897460938 1258.87207031 c 132,-1,15
 73.1328125 1363.59375 73.1328125 1363.59375 73.1328125 1450.86132812 c 6,16,-1
 73.1328125 1533.47460938 l 5,17,-1
 7.6923828125 1533.47460938 l 5,18,-1
 7.6923828125 1628.88867188 l 5,19,-1
 1126.30761719 1628.88867188 l 5,20,-1
 1126.30761719 1533.47460938 l 5,21,-1
 1060.86816406 1533.47460938 l 5,22,-1
 1060.86816406 1450.86132812 l 6,23,24
 1060.86816406 1363.59375 1060.86816406 1363.59375 1026.61425781 1258.87207031 c 132,-1,25
 992.360351562 1154.14941406 992.360351562 1154.14941406 865.5703125 950.524414062 c 4,26,27
 770.477539062 794.60546875 770.477539062 794.60546875 747.471679688 731.190429688 c 132,-1,28
 724.465820312 667.775390625 724.465820312 667.775390625 724.465820312 620.068359375 c 4,29,30
 724.465820312 573.525390625 724.465820312 573.525390625 747.471679688 509.529296875 c 132,-1,31
 770.477539062 445.532226562 770.477539062 445.532226562 865.5703125 291.940429688 c 4,32,33
 992.360351562 88.314453125 992.360351562 88.314453125 1026.61425781 -17.5703125 c 132,-1,34
 1060.86816406 -123.456054688 1060.86816406 -123.456054688 1060.86816406 -209.560546875 c 6,35,-1
 1060.86816406 -292.173828125 l 5,36,-1
 1126.30761719 -292.173828125 l 5,37,-1
 1126.30761719 -386.423828125 l 5,0,-1
983.158203125 1454.3515625 m 6,38,-1
 983.158203125 1533.47460938 l 5,39,-1
 150.842773438 1533.47460938 l 5,40,-1
 150.842773438 1454.3515625 l 6,41,42
 150.842773438 1385.70117188 150.842773438 1385.70117188 182.540039062 1290.28808594 c 132,-1,43
 214.23828125 1194.875 214.23828125 1194.875 371.703125 935.3984375 c 5,44,45
 480.087890625 897 480.087890625 897 567 897 c 260,46,47
 653.913085938 897 653.913085938 897 762.297851562 935.3984375 c 5,48,49
 920.78515625 1194.875 920.78515625 1194.875 951.971679688 1290.28808594 c 132,-1,50
 983.158203125 1385.70117188 983.158203125 1385.70117188 983.158203125 1454.3515625 c 6,38,-1
983.158203125 -292.173828125 m 5,51,-1
 983.158203125 -214.21484375 l 6,52,53
 983.158203125 -138.58203125 983.158203125 -138.58203125 951.971679688 -45.49609375 c 132,-1,54
 920.78515625 47.58984375 920.78515625 47.58984375 803.198242188 239.580078125 c 4,55,56
 698.903320312 410.625 698.903320312 410.625 671.806640625 486.83984375 c 132,-1,57
 644.709960938 563.053710938 644.709960938 563.053710938 644.709960938 620.068359375 c 6,58,-1
 644.709960938 628.213867188 l 5,59,60
 597.67578125 529.310546875 597.67578125 529.310546875 567 529.310546875 c 260,61,62
 536.325195312 529.310546875 536.325195312 529.310546875 489.290039062 631.704101562 c 5,63,-1
 489.290039062 620.068359375 l 6,64,65
 489.290039062 563.053710938 489.290039062 563.053710938 462.194335938 486.83984375 c 132,-1,66
 435.09765625 410.625 435.09765625 410.625 330.802734375 239.580078125 c 4,67,68
 213.215820312 47.58984375 213.215820312 47.58984375 182.029296875 -45.49609375 c 132,-1,69
 150.842773438 -138.58203125 150.842773438 -138.58203125 150.842773438 -214.21484375 c 6,70,-1
 150.842773438 -292.173828125 l 5,71,72
 244.913085938 -102.51171875 244.913085938 -102.51171875 364.034179688 40.6083984375 c 132,-1,73
 483.155273438 183.728515625 483.155273438 183.728515625 567 183.728515625 c 260,74,75
 650.845703125 183.728515625 650.845703125 183.728515625 770.989257812 40.6083984375 c 132,-1,76
 891.1328125 -102.51171875 891.1328125 -102.51171875 983.158203125 -292.173828125 c 5,51,-1
567 466.4765625 m 4,77,78
 600.743164062 466.4765625 600.743164062 466.4765625 600.743164062 428.079101562 c 4,79,80
 600.743164062 387.353515625 600.743164062 387.353515625 567 387.353515625 c 4,81,82
 535.302734375 387.353515625 535.302734375 387.353515625 535.302734375 428.079101562 c 4,83,84
 535.302734375 466.4765625 535.302734375 466.4765625 567 466.4765625 c 4,77,78
567 325.684570312 m 4,85,86
 600.743164062 325.684570312 600.743164062 325.684570312 600.743164062 286.123046875 c 4,87,88
 600.743164062 247.725585938 600.743164062 247.725585938 567 247.725585938 c 4,89,90
 535.302734375 247.725585938 535.302734375 247.725585938 535.302734375 286.123046875 c 4,91,92
 535.302734375 325.684570312 535.302734375 325.684570312 567 325.684570312 c 4,85,86
EndSplineSet
EndChar

StartChar: dollar
Encoding: 36 36 4
Width: 2150
GlyphClass: 2
Flags: W
LayerCount: 2
Fore
SplineSet
1402 1634 m 0,0,1
 1544 1634 1544 1634 1674 1578 c 128,-1,2
 1804 1522 1804 1522 1897.5 1427.5 c 128,-1,3
 1991 1333 1991 1333 2046.5 1202 c 128,-1,4
 2102 1071 2102 1071 2102 928 c 0,5,6
 2102 661 2102 661 2000 415 c 128,-1,7
 1898 169 1898 169 1710 -19 c 2,8,-1
 1427 -302 l 2,9,10
 1323 -406 1323 -406 1176 -406 c 0,11,12
 1080 -406 1080 -406 998.5 -358.5 c 128,-1,13
 917 -311 917 -311 869.5 -229.5 c 128,-1,14
 822 -148 822 -148 822 -52 c 2,15,-1
 822 50 l 1,16,-1
 942 50 l 1,17,-1
 942 -52 l 2,18,19
 942 -149 942 -149 1010.5 -217.5 c 128,-1,20
 1079 -286 1079 -286 1176 -286 c 128,-1,21
 1273 -286 1273 -286 1342 -217 c 2,22,-1
 1625 66 l 2,23,24
 1798 238 1798 238 1890 461 c 128,-1,25
 1982 684 1982 684 1982 928 c 0,26,27
 1982 1047 1982 1047 1936 1155.5 c 128,-1,28
 1890 1264 1890 1264 1812.5 1342.5 c 128,-1,29
 1735 1421 1735 1421 1627.5 1467.5 c 128,-1,30
 1520 1514 1520 1514 1402 1514 c 0,31,32
 1286 1514 1286 1514 1180 1470 c 128,-1,33
 1074 1426 1074 1426 992 1344 c 128,-1,34
 910 1262 910 1262 866 1156 c 128,-1,35
 822 1050 822 1050 822 934 c 2,36,-1
 822 610 l 1,37,-1
 702 610 l 1,38,-1
 702 934 l 2,39,40
 702 1074 702 1074 755 1202 c 128,-1,41
 808 1330 808 1330 907 1429 c 128,-1,42
 1006 1528 1006 1528 1134 1581 c 128,-1,43
 1262 1634 1262 1634 1402 1634 c 0,0,1
1402 1334 m 0,44,45
 1511 1334 1511 1334 1603 1279.5 c 128,-1,46
 1695 1225 1695 1225 1748.5 1131.5 c 128,-1,47
 1802 1038 1802 1038 1802 928 c 0,48,49
 1802 710 1802 710 1716 513 c 1,50,-1
 1606 561 l 1,51,52
 1682 735 1682 735 1682 928 c 0,53,54
 1682 1046 1682 1046 1600 1130 c 128,-1,55
 1518 1214 1518 1214 1402 1214 c 0,56,57
 1323 1214 1323 1214 1257 1174 c 1,58,59
 1346 1168 1346 1168 1410 1105 c 0,60,61
 1482 1035 1482 1035 1482 934 c 1,62,-1
 1362 934 l 1,63,64
 1362 984 1362 984 1326 1020 c 0,65,66
 1291 1054 1291 1054 1242 1054 c 0,67,68
 1241 1054 1241 1054 1240 1054 c 0,69,70
 1191 1053 1191 1053 1156.5 1017 c 128,-1,71
 1122 981 1122 981 1122 931 c 2,72,-1
 1122 822 l 2,73,74
 1122 743 1122 743 1178 687 c 0,75,76
 1242 623 1242 623 1242 532 c 128,-1,77
 1242 441 1242 441 1178 377 c 0,78,79
 1146 345 1146 345 1146 300 c 2,80,-1
 1146 270 l 2,81,82
 1146 242 1146 242 1166 222 c 128,-1,83
 1186 202 1186 202 1214 202 c 2,84,-1
 1218 202 l 2,85,86
 1246 202 1246 202 1266 222 c 128,-1,87
 1286 242 1286 242 1286 270 c 1,88,-1
 1406 270 l 1,89,90
 1406 192 1406 192 1351 137 c 128,-1,91
 1296 82 1296 82 1218 82 c 2,92,-1
 1214 82 l 2,93,94
 1136 82 1136 82 1081 137 c 128,-1,95
 1026 192 1026 192 1026 270 c 2,96,-1
 1026 300 l 2,97,98
 1026 395 1026 395 1093 462 c 0,99,100
 1122 491 1122 491 1122 532 c 128,-1,101
 1122 573 1122 573 1093 602 c 0,102,103
 1002 693 1002 693 1002 822 c 2,104,-1
 1002 931 l 2,105,106
 1002 932 1002 932 1002 933 c 128,-1,107
 1002 934 1002 934 1002 934 c 2,108,109
 1002 1014 1002 1014 1032.5 1087 c 128,-1,110
 1063 1160 1063 1160 1119 1217 c 0,111,112
 1157 1255 1157 1255 1202.5 1281 c 128,-1,113
 1248 1307 1248 1307 1298.5 1320.5 c 128,-1,114
 1349 1334 1349 1334 1402 1334 c 0,44,45
54 170 m 128,-1,116
 54 203 54 203 77.5 226.5 c 128,-1,117
 101 250 101 250 134 250 c 128,-1,118
 167 250 167 250 190.5 226.5 c 128,-1,119
 214 203 214 203 214 170 c 128,-1,120
 214 137 214 137 190.5 113.5 c 128,-1,121
 167 90 167 90 134 90 c 128,-1,122
 101 90 101 90 77.5 113.5 c 128,-1,115
 54 137 54 137 54 170 c 128,-1,116
360 396 m 1,123,124
 422 335 422 335 443.5 252.5 c 128,-1,125
 465 170 465 170 443.5 87.5 c 128,-1,126
 422 5 422 5 360 -56 c 1,127,-1
 275 29 l 1,128,129
 334 87 334 87 334 170 c 128,-1,130
 334 253 334 253 275 311 c 1,131,-1
 360 396 l 1,123,124
530 566 m 1,132,133
 637 459 637 459 675.5 314.5 c 128,-1,134
 714 170 714 170 675.5 25.5 c 128,-1,135
 637 -119 637 -119 530 -226 c 1,136,-1
 445 -141 l 1,137,138
 508 -78 508 -78 541 4.5 c 128,-1,139
 574 87 574 87 574 170 c 128,-1,140
 574 253 574 253 541 335.5 c 128,-1,141
 508 418 508 418 445 481 c 1,142,-1
 530 566 l 1,132,133
EndSplineSet
EndChar

StartChar: percent
Encoding: 37 37 5
Width: 1821
GlyphClass: 2
Flags: W
LayerCount: 2
Fore
SplineSet
89 1104 m 0,0,1
 89 1301 89 1301 175.5 1396 c 128,-1,2
 262 1491 262 1491 410 1491 c 0,3,4
 563 1491 563 1491 649.5 1396.5 c 128,-1,5
 736 1302 736 1302 736 1104 c 0,6,7
 736 907 736 907 649.5 812 c 128,-1,8
 563 717 563 717 415 717 c 0,9,10
 262 717 262 717 175.5 811.5 c 128,-1,11
 89 906 89 906 89 1104 c 0,0,1
308 1106 m 256,12,13
 308 963 308 963 341 914 c 0,14,15
 366 878 366 878 410 878 c 0,16,17
 455 878 455 878 480 914 c 0,18,19
 512 963 512 963 512 1106 c 256,20,21
 512 1249 512 1249 480 1297 c 0,22,23
 455 1334 455 1334 410 1334 c 0,24,25
 366 1334 366 1334 341 1298 c 0,26,27
 308 1249 308 1249 308 1106 c 256,12,13
624 -56 m 1,28,-1
 416 -56 l 1,29,-1
 1197 1491 l 1,30,-1
 1399 1491 l 1,31,-1
 624 -56 l 1,28,-1
1078 329 m 0,32,33
 1078 526 1078 526 1164.5 621 c 128,-1,34
 1251 716 1251 716 1401 716 c 0,35,36
 1552 716 1552 716 1638.5 621 c 128,-1,37
 1725 526 1725 526 1725 329 c 0,38,39
 1725 131 1725 131 1638.5 36 c 128,-1,40
 1552 -59 1552 -59 1404 -59 c 0,41,42
 1251 -59 1251 -59 1164.5 36 c 128,-1,43
 1078 131 1078 131 1078 329 c 0,32,33
1297 330 m 256,44,45
 1297 187 1297 187 1330 139 c 0,46,47
 1355 102 1355 102 1399 102 c 0,48,49
 1444 102 1444 102 1468 138 c 0,50,51
 1501 187 1501 187 1501 330 c 256,52,53
 1501 473 1501 473 1469 522 c 0,54,55
 1444 558 1444 558 1399 558 c 256,56,57
 1354 558 1354 558 1330 522 c 0,58,59
 1297 473 1297 473 1297 330 c 256,44,45
EndSplineSet
EndChar

StartChar: ampersand
Encoding: 38 38 6
Width: 2517
GlyphClass: 2
Flags: WO
LayerCount: 2
Fore
SplineSet
327.2109375 -382.454101562 m 2,0,1
 231.442382812 -382.454101562 231.442382812 -382.454101562 180.500976562 -364.114257812 c 128,-1,2
 129.559570312 -345.775390625 129.559570312 -345.775390625 103.069335938 -310.116210938 c 128,-1,3
 76.580078125 -274.458007812 76.580078125 -274.458007812 76.580078125 -231.666992188 c 0,4,5
 76.580078125 -209.252929688 76.580078125 -209.252929688 87.787109375 -169.518554688 c 128,-1,6
 98.994140625 -129.784179688 98.994140625 -129.784179688 131.59765625 -68.654296875 c 2,7,-1
 1032.24023438 1439.21191406 l 2,8,9
 1060.76757812 1486.07714844 1060.76757812 1486.07714844 1098.46484375 1536 c 128,-1,10
 1136.16113281 1585.921875 1136.16113281 1585.921875 1176.9140625 1604.26074219 c 128,-1,11
 1217.66796875 1622.60058594 1217.66796875 1622.60058594 1248.23242188 1622.60058594 c 128,-1,12
 1278.796875 1622.60058594 1278.796875 1622.60058594 1319.55078125 1604.26074219 c 128,-1,13
 1360.30371094 1585.921875 1360.30371094 1585.921875 1398 1536 c 128,-1,14
 1435.69726562 1486.07714844 1435.69726562 1486.07714844 1464.22460938 1439.21191406 c 2,15,-1
 2364.8671875 -68.654296875 l 2,16,17
 2397.47070312 -129.784179688 2397.47070312 -129.784179688 2408.67773438 -169.518554688 c 128,-1,18
 2419.88476562 -209.252929688 2419.88476562 -209.252929688 2419.88476562 -231.666992188 c 0,19,20
 2419.88476562 -274.458007812 2419.88476562 -274.458007812 2393.39550781 -310.116210938 c 128,-1,21
 2366.90527344 -345.775390625 2366.90527344 -345.775390625 2315.96386719 -364.114257812 c 128,-1,22
 2265.02246094 -382.454101562 2265.02246094 -382.454101562 2169.25390625 -382.454101562 c 2,23,-1
 327.2109375 -382.454101562 l 2,0,1
371.0703125 -233.801757812 m 2,24,-1
 2125.39453125 -233.801757812 l 2,25,26
 2177.79199219 -233.801757812 2177.79199219 -233.801757812 2201.07910156 -223.127929688 c 128,-1,27
 2224.3671875 -212.455078125 2224.3671875 -212.455078125 2239.89160156 -193.048828125 c 128,-1,28
 2255.41699219 -173.642578125 2255.41699219 -173.642578125 2252.50585938 -144.533203125 c 128,-1,29
 2249.59472656 -115.423828125 2249.59472656 -115.423828125 2222.42578125 -70.7890625 c 2,30,-1
 1364.66992188 1365.2734375 l 2,31,32
 1345.26367188 1397.29394531 1345.26367188 1397.29394531 1328.28320312 1421.55175781 c 128,-1,33
 1311.30273438 1445.80957031 1311.30273438 1445.80957031 1291.41113281 1457.93847656 c 128,-1,34
 1271.51953125 1470.06738281 1271.51953125 1470.06738281 1248.23242188 1470.06738281 c 128,-1,35
 1224.9453125 1470.06738281 1224.9453125 1470.06738281 1205.05371094 1457.93847656 c 128,-1,36
 1185.16210938 1445.80957031 1185.16210938 1445.80957031 1168.18164062 1421.06640625 c 128,-1,37
 1151.20117188 1396.32324219 1151.20117188 1396.32324219 1131.79492188 1365.2734375 c 2,38,-1
 274.0390625 -70.7890625 l 2,39,40
 246.870117188 -115.423828125 246.870117188 -115.423828125 243.958984375 -144.533203125 c 128,-1,41
 241.047851562 -173.642578125 241.047851562 -173.642578125 256.573242188 -193.048828125 c 128,-1,42
 272.09765625 -212.455078125 272.09765625 -212.455078125 295.385742188 -223.127929688 c 128,-1,43
 318.672851562 -233.801757812 318.672851562 -233.801757812 371.0703125 -233.801757812 c 2,24,-1
1248.23242188 -160.057617188 m 128,-1,45
 1211.36035156 -160.057617188 1211.36035156 -160.057617188 1186.1328125 -145.502929688 c 128,-1,46
 1160.90429688 -130.948242188 1160.90429688 -130.948242188 1146.34960938 -105.720703125 c 128,-1,47
 1131.79492188 -80.4921875 1131.79492188 -80.4921875 1131.79492188 -43.6201171875 c 128,-1,48
 1131.79492188 -6.7490234375 1131.79492188 -6.7490234375 1146.34960938 18.4794921875 c 128,-1,49
 1160.90429688 43.7080078125 1160.90429688 43.7080078125 1186.1328125 58.2626953125 c 128,-1,50
 1211.36035156 72.8173828125 1211.36035156 72.8173828125 1248.23242188 72.8173828125 c 128,-1,51
 1285.10449219 72.8173828125 1285.10449219 72.8173828125 1310.33203125 58.2626953125 c 128,-1,52
 1335.56054688 43.7080078125 1335.56054688 43.7080078125 1350.11523438 18.4794921875 c 128,-1,53
 1364.66992188 -6.7490234375 1364.66992188 -6.7490234375 1364.66992188 -43.6201171875 c 128,-1,54
 1364.66992188 -80.4921875 1364.66992188 -80.4921875 1350.11523438 -105.720703125 c 128,-1,55
 1335.56054688 -130.948242188 1335.56054688 -130.948242188 1310.33203125 -145.502929688 c 128,-1,44
 1285.10449219 -160.057617188 1285.10449219 -160.057617188 1248.23242188 -160.057617188 c 128,-1,45
1209.41992188 197.016601562 m 1,56,57
 1092.98242188 561.854492188 1092.98242188 561.854492188 1091.04199219 835.482421875 c 2,58,-1
 1091.04199219 1027.60449219 l 2,59,60
 1106.56640625 1227.48925781 1106.56640625 1227.48925781 1248.23242188 1264.36035156 c 1,61,62
 1389.8984375 1227.48925781 1389.8984375 1227.48925781 1405.42285156 1027.60449219 c 2,63,-1
 1405.42285156 835.482421875 l 2,64,65
 1403.48242188 561.854492188 1403.48242188 561.854492188 1287.04492188 197.016601562 c 1,66,-1
 1209.41992188 197.016601562 l 1,56,57
EndSplineSet
EndChar

StartChar: quotesingle
Encoding: 39 39 7
Width: 2030
GlyphClass: 2
Flags: W
LayerCount: 2
Fore
SplineSet
2030 672 m 0,0,1
 2030 278 2030 278 1741 -0.5 c 128,-1,2
 1452 -279 1452 -279 1044 -279 c 256,3,4
 636 -279 636 -279 348 -0.5 c 128,-1,5
 60 278 60 278 60 672 c 0,6,7
 60 1065 60 1065 348 1344.5 c 128,-1,8
 636 1624 636 1624 1044 1624 c 256,9,10
 1452 1624 1452 1624 1741 1344.5 c 128,-1,11
 2030 1065 2030 1065 2030 672 c 0,0,1
1523 1266 m 1,12,13
 1287 1460 1287 1460 1044 1460 c 0,14,15
 773 1460 773 1460 493 1190 c 0,16,17
 266 971 266 971 266 680 c 0,18,19
 266 399 266 399 450 189 c 1,20,-1
 1523 1266 l 1,12,13
1830 676 m 0,21,22
 1830 930 1830 930 1651 1134 c 1,23,-1
 582 69 l 1,24,25
 775 -92 775 -92 1035 -92 c 0,26,27
 1339 -92 1339 -92 1591 152 c 0,28,29
 1830 383 1830 383 1830 676 c 0,21,22
EndSplineSet
EndChar

StartChar: parenleft
Encoding: 40 40 8
Width: 872
GlyphClass: 2
Flags: W
LayerCount: 2
Fore
SplineSet
761.599609375 159.245117188 m 1,0,1
 586 1 586 1 413.159179688 0.67578125 c 0,2,3
 293 1 293 1 212.608631498 78.1970094885 c 0,4,5
 126 160 126 160 142.080078125 271.415039062 c 0,6,7
 145 292 145 292 147 313 c 1,8,9
 97 278 97 278 47 243 c 1,10,11
 44 288 44 288 41 333 c 5,12,13
 94 366 94 366 147 399 c 1,14,15
 169 583 169 583 243.139648438 757.73046875 c 0,16,17
 331 965 331 965 492.51953125 1156.11523438 c 0,18,19
 629 1317 629 1317 738.040039062 1307.61523438 c 0,20,21
 863 1297 863 1297 863.279296875 1185.40527344 c 0,22,23
 865 1028 865 1028 747.739257812 842.027832031 c 0,24,25
 599 607 599 607 376 409 c 1,26,27
 371 362 371 362 371 314.78515625 c 0,28,29
 371 113 371 113 504 113 c 0,30,31
 587 113 587 113 766 279 c 1,32,-1
 761.599609375 159.245117188 l 1,0,1
390 537 m 1,33,34
 524 661 524 661 662 871 c 0,35,36
 762 1022 762 1022 776 1147 c 0,37,38
 783 1209 783 1209 729 1218 c 128,-1,39
 675 1227 675 1227 590.299804688 1099.6328125 c 0,40,41
 486.863188572 944.090893965 486.863188572 944.090893965 390 537 c 1,33,34
EndSplineSet
EndChar

StartChar: parenright
Encoding: 41 41 9
Width: 819
GlyphClass: 2
Flags: W
LayerCount: 2
Fore
SplineSet
86 1172 m 0,0,1
 86 1305 86 1305 179.5 1398 c 128,-1,2
 273 1491 273 1491 405 1491 c 256,3,4
 537 1491 537 1491 630.5 1397.5 c 128,-1,5
 724 1304 724 1304 724 1172 c 256,6,7
 724 1040 724 1040 630.5 946.5 c 128,-1,8
 537 853 537 853 405 853 c 256,9,10
 273 853 273 853 179.5 946.5 c 128,-1,11
 86 1040 86 1040 86 1172 c 0,0,1
252 1172 m 256,12,13
 252 1109 252 1109 297 1064 c 128,-1,14
 342 1019 342 1019 405 1019 c 256,15,16
 468 1019 468 1019 513 1064 c 128,-1,17
 558 1109 558 1109 558 1172 c 256,18,19
 558 1235 558 1235 513 1280 c 128,-1,20
 468 1325 468 1325 405 1325 c 256,21,22
 342 1325 342 1325 297 1280 c 128,-1,23
 252 1235 252 1235 252 1172 c 256,12,13
EndSplineSet
EndChar

StartChar: asterisk
Encoding: 42 42 10
Width: 2048
GlyphClass: 2
Flags: MW
LayerCount: 2
Fore
SplineSet
1016 359.19921875 m 1,0,-1
 854.400390625 359.19921875 l 1,1,-1
 595.200195312 793.599609375 l 1,2,-1
 501.600585938 696.799804688 l 1,3,-1
 501.600585938 359.19921875 l 1,4,-1
 368.799804688 359.19921875 l 1,5,-1
 368.799804688 1532 l 1,6,-1
 501.600585938 1532 l 1,7,-1
 501.600585938 864 l 1,8,-1
 816 1208 l 1,9,-1
 986.400390625 1208 l 1,10,-1
 688.799804688 893.599609375 l 1,11,-1
 1016 359.19921875 l 1,0,-1
1725.60058594 473.599609375 m 2,12,13
 1725.60058594 257.599609375 1725.60058594 257.599609375 1682 176.799804688 c 128,-1,14
 1638.40039062 96 1638.40039062 96 1555.20019531 55.599609375 c 128,-1,15
 1472 15.19921875 1472 15.19921875 1364 15.19921875 c 0,16,17
 1227.20019531 15.19921875 1227.20019531 15.19921875 1141.60058594 82.7998046875 c 128,-1,18
 1056 150.399414062 1056 150.399414062 1047.20019531 288.799804688 c 1,19,-1
 1178.40039062 267.19921875 l 1,20,21
 1194.40039062 132.799804688 1194.40039062 132.799804688 1361.60058594 132.799804688 c 0,22,23
 1467.20019531 132.799804688 1467.20019531 132.799804688 1516.40039062 178.399414062 c 128,-1,24
 1565.60058594 224 1565.60058594 224 1576.79980469 289.599609375 c 128,-1,25
 1588 355.19921875 1588 355.19921875 1588 470.399414062 c 1,26,27
 1500 359.19921875 1500 359.19921875 1365.60058594 359.19921875 c 0,28,29
 1208.79980469 359.19921875 1208.79980469 359.19921875 1114 481.599609375 c 128,-1,30
 1019.20019531 604 1019.20019531 604 1019.20019531 790.399414062 c 0,31,32
 1019.20019531 978.399414062 1019.20019531 978.399414062 1111.20019531 1103.19921875 c 128,-1,33
 1203.20019531 1228 1203.20019531 1228 1367.20019531 1228 c 0,34,35
 1508.79980469 1228 1508.79980469 1228 1597.60058594 1106.39941406 c 1,36,-1
 1600.79980469 1106.39941406 l 1,37,-1
 1600.79980469 1208 l 1,38,-1
 1725.60058594 1208 l 1,39,-1
 1725.60058594 473.599609375 l 2,12,13
1378.40039062 477.599609375 m 0,40,41
 1464.79980469 477.599609375 1464.79980469 477.599609375 1532 550.799804688 c 128,-1,42
 1599.20019531 624 1599.20019531 624 1599.20019531 795.19921875 c 0,43,44
 1599.20019531 948 1599.20019531 948 1535.60058594 1028.79980469 c 128,-1,45
 1472 1109.59960938 1472 1109.59960938 1376.79980469 1109.59960938 c 0,46,47
 1280 1109.59960938 1280 1109.59960938 1219.60058594 1026.39941406 c 128,-1,48
 1159.20019531 943.19921875 1159.20019531 943.19921875 1159.20019531 798.399414062 c 0,49,50
 1159.20019531 629.599609375 1159.20019531 629.599609375 1223.60058594 553.599609375 c 128,-1,51
 1288 477.599609375 1288 477.599609375 1378.40039062 477.599609375 c 0,40,41
EndSplineSet
EndChar

StartChar: plus
Encoding: 43 43 11
Width: 1196
GlyphClass: 2
Flags: W
LayerCount: 2
Fore
SplineSet
469 211 m 1,0,-1
 469 592 l 1,1,-1
 85 592 l 1,2,-1
 85 855 l 1,3,-1
 469 855 l 1,4,-1
 469 1236 l 1,5,-1
 725 1236 l 1,6,-1
 725 855 l 1,7,-1
 1110 855 l 1,8,-1
 1110 592 l 1,9,-1
 725 592 l 1,10,-1
 725 211 l 1,11,-1
 469 211 l 1,0,-1
EndSplineSet
EndChar

StartChar: comma
Encoding: 44 44 12
Width: 569
GlyphClass: 2
Flags: W
LayerCount: 2
Fore
SplineSet
140 281 m 1,0,-1
 421 281 l 1,1,-1
 421 80 l 2,2,3
 421 -42 421 -42 400 -112.5 c 128,-1,4
 379 -183 379 -183 320.5 -239 c 128,-1,5
 262 -295 262 -295 172 -327 c 1,6,-1
 117 -211 l 1,7,8
 202 -183 202 -183 238 -134 c 128,-1,9
 274 -85 274 -85 276 0 c 1,10,-1
 140 0 l 1,11,-1
 140 281 l 1,0,-1
EndSplineSet
EndChar

StartChar: hyphen
Encoding: 45 45 13
AltUni2: 0000ad.ffffffff.0
Width: 850
GlyphClass: 2
Flags: W
LayerCount: 2
Fore
SplineSet
27 569 m 1,0,-1
 27 851 l 1,1,-1
 823 850 l 1,2,-1
 822 570 l 1,3,-1
 27 569 l 1,0,-1
EndSplineSet
EndChar

StartChar: period
Encoding: 46 46 14
Width: 569
GlyphClass: 2
Flags: W
LayerCount: 2
Fore
SplineSet
147 0 m 1,0,-1
 147 281 l 1,1,-1
 428 281 l 1,2,-1
 428 0 l 1,3,-1
 147 0 l 1,0,-1
EndSplineSet
EndChar

StartChar: slash
Encoding: 47 47 15
Width: 569
GlyphClass: 2
Flags: W
LayerCount: 2
Fore
SplineSet
-3 -25 m 1,0,-1
 360 1491 l 1,1,-1
 571 1491 l 1,2,-1
 204 -25 l 1,3,-1
 -3 -25 l 1,0,-1
EndSplineSet
EndChar

StartChar: zero
Encoding: 48 48 16
Width: 1139
GlyphClass: 2
Flags: W
LayerCount: 2
Fore
SplineSet
562 1472 m 256,0,1
 775 1472 775 1472 895 1320 c 0,2,3
 1038 1140 1038 1140 1038 723 c 0,4,5
 1038 307 1038 307 894 125 c 0,6,7
 775 -25 775 -25 562 -25 c 0,8,9
 348 -25 348 -25 217 139.5 c 128,-1,10
 86 304 86 304 86 726 c 0,11,12
 86 1140 86 1140 230 1322 c 0,13,14
 349 1472 349 1472 562 1472 c 256,0,1
562 1239 m 256,15,16
 511 1239 511 1239 471 1206.5 c 128,-1,17
 431 1174 431 1174 409 1090 c 0,18,19
 380 981 380 981 380 723 c 256,20,21
 380 465 380 465 406 368.5 c 128,-1,22
 432 272 432 272 471.5 240 c 128,-1,23
 511 208 511 208 562 208 c 256,24,25
 613 208 613 208 653 240.5 c 128,-1,26
 693 273 693 273 715 357 c 0,27,28
 744 465 744 465 744 723 c 256,29,30
 744 981 744 981 718 1077.5 c 128,-1,31
 692 1174 692 1174 652.5 1206.5 c 128,-1,32
 613 1239 613 1239 562 1239 c 256,15,16
EndSplineSet
EndChar

StartChar: one
Encoding: 49 49 17
Width: 1139
GlyphClass: 2
Flags: W
LayerCount: 2
Fore
SplineSet
806 0 m 1,0,-1
 525 0 l 1,1,-1
 525 1059 l 1,2,3
 394 936 394 936 298 905 c 1,4,-1
 300 1155 l 1,5,6
 410 1191 410 1191 470 1264.5 c 132,-1,7
 530 1338 530 1338 578 1472 c 1,8,-1
 806 1472 l 1,9,-1
 806 0 l 1,0,-1
EndSplineSet
EndChar

StartChar: two
Encoding: 50 50 18
Width: 1139
GlyphClass: 2
Flags: W
LayerCount: 2
Fore
SplineSet
1036 261 m 1,0,-1
 1036 0 l 1,1,-1
 51 0 l 1,2,3
 67 148 67 148 147 280.5 c 128,-1,4
 227 413 227 413 463 632 c 0,5,6
 653 809 653 809 696 872 c 0,7,8
 754 959 754 959 754 1044 c 0,9,10
 754 1138 754 1138 703.5 1188.5 c 128,-1,11
 653 1239 653 1239 564 1239 c 0,12,13
 476 1239 476 1239 424 1186 c 128,-1,14
 372 1133 372 1133 364 1010 c 1,15,-1
 84 1038 l 1,16,17
 109 1270 109 1270 241 1371 c 128,-1,18
 373 1472 373 1472 571 1472 c 0,19,20
 788 1472 788 1472 912 1355 c 128,-1,21
 1036 1238 1036 1238 1036 1064 c 0,22,23
 1036 965 1036 965 1000.5 875.5 c 128,-1,24
 965 786 965 786 888 688 c 0,25,26
 837 623 837 623 704 501 c 128,-1,27
 571 379 571 379 535.5 339 c 128,-1,28
 500 299 500 299 478 261 c 1,29,-1
 1036 261 l 1,0,-1
EndSplineSet
EndChar

StartChar: three
Encoding: 51 51 19
Width: 1139
GlyphClass: 2
Flags: W
LayerCount: 2
Fore
SplineSet
77 389 m 1,0,-1
 349 422 l 1,1,2
 362 318 362 318 419 263 c 128,-1,3
 476 208 476 208 557 208 c 0,4,5
 644 208 644 208 703.5 274 c 128,-1,6
 763 340 763 340 763 452 c 0,7,8
 763 558 763 558 706 620 c 128,-1,9
 649 682 649 682 567 682 c 0,10,11
 513 682 513 682 438 661 c 1,12,-1
 469 890 l 1,13,14
 583 887 583 887 643 939.5 c 128,-1,15
 703 992 703 992 703 1079 c 0,16,17
 703 1153 703 1153 659 1197 c 128,-1,18
 615 1241 615 1241 542 1241 c 0,19,20
 470 1241 470 1241 419 1191 c 128,-1,21
 368 1141 368 1141 357 1045 c 1,22,-1
 98 1089 l 1,23,24
 125 1222 125 1222 179.5 1301.5 c 128,-1,25
 234 1381 234 1381 331.5 1426.5 c 128,-1,26
 429 1472 429 1472 550 1472 c 0,27,28
 757 1472 757 1472 882 1340 c 0,29,30
 985 1232 985 1232 985 1096 c 0,31,32
 985 903 985 903 774 788 c 1,33,34
 900 761 900 761 975.5 667 c 128,-1,35
 1051 573 1051 573 1051 440 c 0,36,37
 1051 247 1051 247 910 111 c 128,-1,38
 769 -25 769 -25 559 -25 c 0,39,40
 360 -25 360 -25 229 89.5 c 128,-1,41
 98 204 98 204 77 389 c 1,0,-1
EndSplineSet
EndChar

StartChar: four
Encoding: 52 52 20
Width: 1139
GlyphClass: 2
Flags: W
LayerCount: 2
Fore
SplineSet
638 0 m 1,0,-1
 638 295 l 1,1,-1
 38 295 l 1,2,-1
 38 541 l 1,3,-1
 674 1472 l 1,4,-1
 910 1472 l 1,5,-1
 910 542 l 1,6,-1
 1092 542 l 1,7,-1
 1092 295 l 1,8,-1
 910 295 l 1,9,-1
 910 0 l 1,10,-1
 638 0 l 1,0,-1
638 542 m 1,11,-1
 638 1043 l 1,12,-1
 301 542 l 1,13,-1
 638 542 l 1,11,-1
EndSplineSet
EndChar

StartChar: five
Encoding: 53 53 21
Width: 1139
GlyphClass: 2
Flags: W
LayerCount: 2
Fore
SplineSet
91 377 m 1,0,-1
 371 406 l 1,1,2
 383 311 383 311 442 255.5 c 128,-1,3
 501 200 501 200 578 200 c 0,4,5
 666 200 666 200 727 271.5 c 128,-1,6
 788 343 788 343 788 487 c 0,7,8
 788 622 788 622 727.5 689.5 c 128,-1,9
 667 757 667 757 570 757 c 0,10,11
 449 757 449 757 353 650 c 1,12,-1
 125 683 l 1,13,-1
 269 1446 l 1,14,-1
 1012 1446 l 1,15,-1
 1012 1183 l 1,16,-1
 482 1183 l 1,17,-1
 438 934 l 1,18,19
 532 981 532 981 630 981 c 0,20,21
 817 981 817 981 947 845 c 128,-1,22
 1077 709 1077 709 1077 492 c 0,23,24
 1077 311 1077 311 972 169 c 0,25,26
 829 -25 829 -25 575 -25 c 0,27,28
 372 -25 372 -25 244 84 c 128,-1,29
 116 193 116 193 91 377 c 1,0,-1
EndSplineSet
EndChar

StartChar: six
Encoding: 54 54 22
Width: 1139
GlyphClass: 2
Flags: W
LayerCount: 2
Fore
SplineSet
1039 1107 m 1,0,-1
 767 1077 l 1,1,2
 757 1161 757 1161 715 1201 c 128,-1,3
 673 1241 673 1241 606 1241 c 0,4,5
 517 1241 517 1241 455.5 1161 c 128,-1,6
 394 1081 394 1081 378 828 c 1,7,8
 483 952 483 952 639 952 c 0,9,10
 815 952 815 952 940.5 818 c 128,-1,11
 1066 684 1066 684 1066 472 c 0,12,13
 1066 247 1066 247 934 111 c 128,-1,14
 802 -25 802 -25 595 -25 c 0,15,16
 373 -25 373 -25 230 147.5 c 128,-1,17
 87 320 87 320 87 713 c 0,18,19
 87 1116 87 1116 236 1294 c 128,-1,20
 385 1472 385 1472 623 1472 c 0,21,22
 790 1472 790 1472 899.5 1378.5 c 128,-1,23
 1009 1285 1009 1285 1039 1107 c 1,0,-1
402 494 m 0,24,25
 402 357 402 357 465 282.5 c 128,-1,26
 528 208 528 208 609 208 c 0,27,28
 687 208 687 208 739 269 c 128,-1,29
 791 330 791 330 791 469 c 0,30,31
 791 612 791 612 735 678.5 c 128,-1,32
 679 745 679 745 595 745 c 0,33,34
 514 745 514 745 458 681.5 c 128,-1,35
 402 618 402 618 402 494 c 0,24,25
EndSplineSet
EndChar

StartChar: seven
Encoding: 55 55 23
Width: 1139
GlyphClass: 2
Flags: W
LayerCount: 2
Fore
SplineSet
87 1185 m 1,0,-1
 87 1446 l 1,1,-1
 1048 1446 l 1,2,-1
 1048 1242 l 1,3,4
 929 1125 929 1125 806 906 c 128,-1,5
 683 687 683 687 618.5 440.5 c 128,-1,6
 554 194 554 194 555 0 c 1,7,-1
 284 0 l 1,8,9
 291 304 291 304 409.5 620 c 128,-1,10
 528 936 528 936 726 1185 c 1,11,-1
 87 1185 l 1,0,-1
EndSplineSet
EndChar

StartChar: eight
Encoding: 56 56 24
Width: 1139
GlyphClass: 2
Flags: W
LayerCount: 2
Fore
SplineSet
328 791 m 1,0,1
 219 837 219 837 169.5 917.5 c 128,-1,2
 120 998 120 998 120 1094 c 0,3,4
 120 1258 120 1258 234.5 1365 c 128,-1,5
 349 1472 349 1472 560 1472 c 0,6,7
 769 1472 769 1472 884.5 1365 c 128,-1,8
 1000 1258 1000 1258 1000 1094 c 0,9,10
 1000 992 1000 992 947 912.5 c 128,-1,11
 894 833 894 833 798 791 c 1,12,13
 920 742 920 742 983.5 648 c 128,-1,14
 1047 554 1047 554 1047 431 c 0,15,16
 1047 228 1047 228 917.5 101 c 128,-1,17
 788 -26 788 -26 573 -26 c 0,18,19
 373 -26 373 -26 240 79 c 0,20,21
 83 203 83 203 83 419 c 0,22,23
 83 538 83 538 142 637.5 c 128,-1,24
 201 737 201 737 328 791 c 1,0,1
386 1074 m 0,25,26
 386 990 386 990 433.5 943 c 128,-1,27
 481 896 481 896 560 896 c 0,28,29
 640 896 640 896 688 943.5 c 128,-1,30
 736 991 736 991 736 1075 c 0,31,32
 736 1154 736 1154 688.5 1201.5 c 128,-1,33
 641 1249 641 1249 563 1249 c 0,34,35
 482 1249 482 1249 434 1201 c 128,-1,36
 386 1153 386 1153 386 1074 c 0,25,26
360 446 m 0,37,38
 360 330 360 330 419.5 265 c 128,-1,39
 479 200 479 200 568 200 c 0,40,41
 655 200 655 200 712 262.5 c 128,-1,42
 769 325 769 325 769 443 c 0,43,44
 769 546 769 546 711 608.5 c 128,-1,45
 653 671 653 671 564 671 c 0,46,47
 461 671 461 671 410.5 600 c 128,-1,48
 360 529 360 529 360 446 c 0,37,38
EndSplineSet
EndChar

StartChar: nine
Encoding: 57 57 25
Width: 1139
GlyphClass: 2
Flags: W
LayerCount: 2
Fore
SplineSet
93 339 m 1,0,-1
 365 369 l 1,1,2
 375 286 375 286 417 246 c 128,-1,3
 459 206 459 206 528 206 c 0,4,5
 615 206 615 206 676 286 c 128,-1,6
 737 366 737 366 754 618 c 1,7,8
 648 495 648 495 489 495 c 0,9,10
 316 495 316 495 190.5 628.5 c 128,-1,11
 65 762 65 762 65 976 c 0,12,13
 65 1199 65 1199 197.5 1335.5 c 128,-1,14
 330 1472 330 1472 535 1472 c 0,15,16
 758 1472 758 1472 901 1299.5 c 128,-1,17
 1044 1127 1044 1127 1044 732 c 0,18,19
 1044 330 1044 330 895 152 c 128,-1,20
 746 -26 746 -26 507 -26 c 0,21,22
 335 -26 335 -26 229 65.5 c 128,-1,23
 123 157 123 157 93 339 c 1,0,-1
729 953 m 0,24,25
 729 1089 729 1089 666.5 1164 c 128,-1,26
 604 1239 604 1239 522 1239 c 0,27,28
 444 1239 444 1239 392.5 1177.5 c 128,-1,29
 341 1116 341 1116 341 976 c 0,30,31
 341 834 341 834 397 767.5 c 128,-1,32
 453 701 453 701 537 701 c 0,33,34
 618 701 618 701 673.5 765 c 128,-1,35
 729 829 729 829 729 953 c 0,24,25
EndSplineSet
EndChar

StartChar: colon
Encoding: 58 58 26
Width: 682
GlyphClass: 2
Flags: W
LayerCount: 2
Fore
SplineSet
201 781 m 1,0,-1
 201 1062 l 1,1,-1
 482 1062 l 1,2,-1
 482 781 l 1,3,-1
 201 781 l 1,0,-1
201 0 m 1,4,-1
 201 281 l 1,5,-1
 482 281 l 1,6,-1
 482 0 l 1,7,-1
 201 0 l 1,4,-1
EndSplineSet
EndChar

StartChar: less
Encoding: 60 60 27
Width: 1072
GlyphClass: 2
Flags: W
LayerCount: 2
Fore
SplineSet
602.844726562 1499.02148438 m 2,0,1
 621.84765625 1499.02148438 621.84765625 1499.02148438 635.283203125 1485.5859375 c 128,-1,2
 648.71875 1472.15039062 648.71875 1472.15039062 648.71875 1453.14746094 c 2,3,-1
 648.71875 1407.27246094 l 2,4,5
 648.71875 1388.26953125 648.71875 1388.26953125 635.283203125 1374.83398438 c 128,-1,6
 621.84765625 1361.3984375 621.84765625 1361.3984375 602.844726562 1361.3984375 c 2,7,-1
 465.221679688 1361.3984375 l 2,8,9
 446.21875 1361.3984375 446.21875 1361.3984375 432.783203125 1374.83398438 c 128,-1,10
 419.34765625 1388.26953125 419.34765625 1388.26953125 419.34765625 1407.27246094 c 2,11,-1
 419.34765625 1453.14746094 l 2,12,13
 419.34765625 1472.15039062 419.34765625 1472.15039062 432.783203125 1485.5859375 c 128,-1,14
 446.21875 1499.02148438 446.21875 1499.02148438 465.221679688 1499.02148438 c 2,15,-1
 602.844726562 1499.02148438 l 2,0,1
706.069335938 1630.91113281 m 2,16,17
 741.694335938 1630.91113281 741.694335938 1630.91113281 766.885742188 1605.71777344 c 128,-1,18
 792.077148438 1580.5234375 792.077148438 1580.5234375 792.077148438 1544.88964844 c 2,19,-1
 792.077148438 1281.36621094 l 1,20,21
 904.119140625 1260.54589844 904.119140625 1260.54589844 977.03515625 1172.97753906 c 128,-1,22
 1049.95019531 1085.40917969 1049.95019531 1085.40917969 1050.12792969 971.458984375 c 2,23,-1
 1050.12792969 340.670898438 l 2,24,25
 1050.04882812 260.743164062 1050.04882812 260.743164062 1011.90722656 190.502929688 c 128,-1,26
 973.766601562 120.26171875 973.766601562 120.26171875 906.77734375 76.662109375 c 1,27,-1
 906.77734375 25.27734375 l 2,28,29
 906.77734375 -22.2275390625 906.77734375 -22.2275390625 873.1796875 -55.818359375 c 128,-1,30
 839.583984375 -89.4091796875 839.583984375 -89.4091796875 792.077148438 -89.4091796875 c 2,31,-1
 275.989257812 -89.4091796875 l 2,32,33
 228.483398438 -89.4091796875 228.483398438 -89.4091796875 194.893554688 -55.818359375 c 128,-1,34
 161.302734375 -22.228515625 161.302734375 -22.228515625 161.302734375 25.27734375 c 2,35,-1
 161.302734375 76.662109375 l 1,36,37
 94.30859375 120.258789062 94.30859375 120.258789062 56.1669921875 190.498046875 c 128,-1,38
 18.02734375 260.737304688 18.02734375 260.737304688 17.9384765625 340.670898438 c 2,39,-1
 17.9384765625 971.458984375 l 2,40,41
 18.125 1085.41308594 18.125 1085.41308594 91.0380859375 1172.97949219 c 128,-1,42
 163.950195312 1260.546875 163.950195312 1260.546875 275.989257812 1281.36621094 c 1,43,-1
 275.989257812 1544.88964844 l 2,44,45
 275.989257812 1580.5234375 275.989257812 1580.5234375 301.180664062 1605.71777344 c 128,-1,46
 326.372070312 1630.91113281 326.372070312 1630.91113281 361.997070312 1630.91113281 c 2,47,-1
 706.069335938 1630.91113281 l 2,16,17
373.47265625 1521.95410156 m 2,48,-1
 373.47265625 1315.52441406 l 1,49,-1
 694.59375 1315.52441406 l 1,50,-1
 694.59375 1521.95410156 l 2,51,52
 694.584960938 1531.10839844 694.584960938 1531.10839844 687.876953125 1538.17773438 c 0,53,54
 680.790039062 1544.89648438 680.790039062 1544.89648438 671.662109375 1544.89648438 c 2,55,-1
 396.404296875 1544.89648438 l 2,56,57
 386.934570312 1544.75878906 386.934570312 1544.75878906 380.189453125 1538.17773438 c 0,58,59
 373.28515625 1531.10839844 373.28515625 1531.10839844 373.47265625 1521.95410156 c 2,48,-1
957.919921875 947.489257812 m 2,60,61
 957.919921875 1047.27050781 957.919921875 1047.27050781 888 1116 c 0,62,63
 818.216796875 1185.92773438 818.216796875 1185.92773438 719.481445312 1185.92773438 c 2,64,-1
 348.584960938 1185.92773438 l 2,65,66
 249.384765625 1185.65917969 249.384765625 1185.65917969 180.06640625 1116 c 0,67,68
 110.146484375 1045.375 110.146484375 1045.375 110.146484375 947.489257812 c 2,69,-1
 110.146484375 364.640625 l 2,70,71
 109.734375 295.258789062 109.734375 295.258789062 150.331054688 232.930664062 c 0,72,73
 210.114257812 141.9609375 210.114257812 141.9609375 256.173828125 144.853515625 c 0,74,75
 256.734375 145.108398438 256.734375 145.108398438 259.412109375 143.65234375 c 0,76,77
 260.934570312 143.008789062 260.934570312 143.008789062 262.408203125 142.575195312 c 0,78,79
 272.484375 138.80859375 272.484375 138.80859375 283.037109375 135.588867188 c 0,80,81
 285.084960938 134.608398438 285.084960938 134.608398438 291.864257812 133.309570312 c 0,82,83
 301.732421875 128.067382812 301.732421875 128.067382812 311.973632812 129.307617188 c 0,84,85
 313.434570312 129.358398438 313.434570312 129.358398438 315.76171875 128.7109375 c 0,86,87
 316.083984375 128.4609375 316.083984375 128.4609375 320.098632812 128.056640625 c 0,88,89
 338.70703125 126.202148438 338.70703125 126.202148438 348.584960938 126.202148438 c 2,90,-1
 719.481445312 126.202148438 l 2,91,92
 737.333007812 131.418945312 737.333007812 131.418945312 747.967773438 127.948242188 c 0,93,94
 750.234375 127.258789062 750.234375 127.258789062 753.275390625 128.747070312 c 0,95,96
 754.434570312 129.358398438 754.434570312 129.358398438 756.092773438 129.197265625 c 0,97,98
 767.03515625 130.409179688 767.03515625 130.409179688 776.202148438 133.19921875 c 0,99,100
 784.970703125 135.43359375 784.970703125 135.43359375 785.029296875 135.48046875 c 0,101,102
 796.0390625 138.536132812 796.0390625 138.536132812 805.671875 142.477539062 c 0,103,104
 805.884765625 143.008789062 805.884765625 143.008789062 808.6328125 143.537109375 c 0,105,106
 811.134765625 145.108398438 811.134765625 145.108398438 811.892578125 144.745117188 c 0,107,108
 878.334960938 172.409179688 878.334960938 172.409179688 917.76953125 232.873046875 c 0,109,110
 957.919921875 292.836914062 957.919921875 292.836914062 957.919921875 364.640625 c 2,111,-1
 957.919921875 947.489257812 l 2,60,61
901.03515625 908.379882812 m 1024,112,-1
441.487304688 791.764648438 m 0,113,114
 420.53515625 771.958984375 420.53515625 771.958984375 409.198242188 761.786132812 c 0,115,116
 397.434570312 750.958984375 397.434570312 750.958984375 377.97265625 729.962890625 c 0,117,118
 357.53515625 707.909179688 357.53515625 707.909179688 346.553710938 692.928710938 c 0,119,120
 334.434570312 676.409179688 334.434570312 676.409179688 320.4296875 652.583007812 c 0,121,122
 306.084960938 627.05859375 306.084960938 627.05859375 297.887695312 605.205078125 c 0,123,124
 291.384765625 589.258789062 291.384765625 589.258789062 284.416992188 552.693359375 c 0,125,126
 278.78515625 523.108398438 278.78515625 523.108398438 278.7578125 491.68359375 c 0,127,128
 278.78515625 386.608398438 278.78515625 386.608398438 345.201171875 326.788085938 c 0,129,130
 411.084960938 266.909179688 411.084960938 266.909179688 529.328125 267.272460938 c 0,131,132
 647.334960938 266.909179688 647.334960938 266.909179688 713.459960938 326.788085938 c 128,-1,133
 779.634765625 386.608398438 779.634765625 386.608398438 779.909179688 491.68359375 c 1,134,135
 776.484375 608.159179688 776.484375 608.159179688 706.854492188 671.0859375 c 0,136,137
 688.28515625 687.958984375 688.28515625 687.958984375 670.848632812 674.428710938 c 0,138,139
 662.03515625 666.958984375 662.03515625 666.958984375 659.125976562 657.297851562 c 0,140,141
 655.734375 644.909179688 655.734375 644.909179688 659.111328125 635.569335938 c 0,142,143
 666.234375 619.708984375 666.234375 619.708984375 661.250976562 601.344726562 c 0,144,145
 659.934570312 596.608398438 659.934570312 596.608398438 640.809570312 595.590820312 c 0,146,147
 635.78515625 595.55859375 635.78515625 595.55859375 632.34765625 596.551757812 c 0,148,149
 628.434570312 597.659179688 628.434570312 597.659179688 626.838867188 604.153320312 c 0,150,151
 623.184570312 614.458984375 623.184570312 614.458984375 624.112304688 624.161132812 c 0,152,153
 627.384765625 649.108398438 627.384765625 649.108398438 643.84375 675.15625 c 0,154,155
 678.834960938 732.05859375 678.834960938 732.05859375 679.796875 792.62109375 c 0,156,157
 679.884765625 827.608398438 679.884765625 827.608398438 670.6015625 864.6796875 c 0,158,159
 660.984375 902.159179688 660.984375 902.159179688 644.17578125 937.981445312 c 0,160,161
 626.334960938 976.708984375 626.334960938 976.708984375 597.701171875 998.70703125 c 0,162,163
 564.384765625 1025.00878906 564.384765625 1025.00878906 532.755859375 1028.81738281 c 0,164,165
 522.384765625 1030.25878906 522.384765625 1030.25878906 512.932617188 1023.94628906 c 0,166,167
 504.53515625 1017.65917969 504.53515625 1017.65917969 499.936523438 1006.20410156 c 0,168,169
 496.134765625 997.708984375 496.134765625 997.708984375 499.239257812 983.373046875 c 0,170,171
 501.384765625 972.508789062 501.384765625 972.508789062 511.063476562 964.932617188 c 0,172,173
 533.934570312 949.409179688 533.934570312 949.409179688 534.896484375 925.098632812 c 0,174,175
 534.984375 907.409179688 534.984375 907.409179688 528.295898438 891.623046875 c 0,176,177
 521.334960938 875.909179688 521.334960938 875.909179688 506.038085938 856.788085938 c 0,178,179
 489.834960938 838.108398438 489.834960938 838.108398438 478.171875 826.256835938 c 0,180,181
 466.734375 812.909179688 466.734375 812.909179688 441.487304688 791.764648438 c 0,113,114
529.323242188 328.024414062 m 0,182,183
 504.53515625 327.80859375 504.53515625 327.80859375 480.768554688 331.124023438 c 0,184,185
 457.28515625 334.108398438 457.28515625 334.108398438 429.624023438 344.544921875 c 0,186,187
 402.684570312 355.108398438 402.684570312 355.108398438 381.723632812 371.625976562 c 0,188,189
 363.834960938 386.608398438 363.834960938 386.608398438 348.028320312 418.646484375 c 0,190,191
 334.434570312 447.508789062 334.434570312 447.508789062 334.374023438 488.94140625 c 0,192,193
 334.434570312 523.108398438 334.434570312 523.108398438 343.29296875 555.767578125 c 0,194,195
 352.28515625 587.159179688 352.28515625 587.159179688 363.413085938 610.075195312 c 0,196,197
 373.28515625 632.30859375 373.28515625 632.30859375 397.095703125 659.030273438 c 0,198,199
 419.484375 684.80859375 419.484375 684.80859375 433.9609375 699.791015625 c 0,200,201
 447.834960938 713.159179688 447.834960938 713.159179688 476.368164062 739.5234375 c 0,202,203
 504.53515625 764.608398438 504.53515625 764.608398438 518.5234375 779.422851562 c 0,204,205
 532.884765625 794.008789062 532.884765625 794.008789062 551.799804688 817.114257812 c 0,206,207
 571.734375 840.208984375 571.734375 840.208984375 579.833984375 863.771484375 c 0,208,209
 588.53515625 886.409179688 588.53515625 886.409179688 590.333984375 913.21484375 c 1,210,211
 623.184570312 855.958984375 623.184570312 855.958984375 623.995117188 789.995117188 c 1,212,213
 620.03515625 742.55859375 620.03515625 742.55859375 595.840820312 704.850585938 c 128,-1,214
 571.734375 666.958984375 571.734375 666.958984375 568.3125 621.51953125 c 1,215,216
 567.53515625 573.508789062 567.53515625 573.508789062 589.55859375 551.942382812 c 0,217,218
 610.584960938 530.458984375 610.584960938 530.458984375 640.703125 529.45703125 c 0,219,220
 717.684570312 527.30859375 717.684570312 527.30859375 706.51953125 561.805664062 c 0,221,222
 706.134765625 561.958984375 706.134765625 561.958984375 707.513671875 563.419921875 c 1,223,224
 723.984375 528.358398438 723.984375 528.358398438 724.22265625 488.94140625 c 0,225,226
 723.984375 447.508789062 723.984375 447.508789062 710.599609375 418.646484375 c 0,227,228
 695.634765625 388.708984375 695.634765625 388.708984375 676.922851562 371.625976562 c 0,229,230
 656.78515625 354.05859375 656.78515625 354.05859375 629.030273438 344.544921875 c 0,231,232
 600.084960938 335.159179688 600.084960938 335.159179688 577.884765625 331.124023438 c 0,233,234
 564.384765625 328.858398438 564.384765625 328.858398438 529.323242188 328.024414062 c 0,182,183
529.326171875 295.512695312 m 1024,235,-1
EndSplineSet
EndChar

StartChar: equal
Encoding: 61 61 28
Width: 1390
GlyphClass: 2
Flags: W
LayerCount: 2
Fore
SplineSet
601 1473 m 5,0,-1
 966.931640625 1473 l 5,1,-1
 718.927734375 1102.32910156 l 5,2,-1
 712.43359375 1092.625 l 5,3,-1
 724.310546875 1092.625 l 5,4,-1
 963.51171875 1092.625 l 5,5,-1
 365.807617188 496.999023438 l 5,6,-1
 602.767578125 969.348632812 l 5,7,-1
 607.297851562 978.381835938 l 5,8,-1
 596.991210938 978.381835938 l 5,9,-1
 352.803710938 978.381835938 l 5,10,-1
 601 1473 l 5,0,-1
8.5068359375 9.3466796875 m 1,11,-1
 8.5068359375 442.875 l 1,12,-1
 103.213867188 442.875 l 1,13,-1
 103.213867188 212.8046875 l 1,14,-1
 214.096679688 323.404296875 l 1,15,-1
 330.712890625 323.404296875 l 1,16,-1
 208.370117188 208.6640625 l 1,17,-1
 339.475585938 9.3466796875 l 1,18,-1
 237.354492188 9.3466796875 l 1,19,-1
 147.366210938 150.40625 l 1,20,-1
 103.213867188 109.891601562 l 1,21,-1
 103.213867188 9.3466796875 l 1,22,-1
 8.5068359375 9.3466796875 l 1,11,-1
466.874023438 9.3466796875 m 1,23,-1
 348.912109375 442.875 l 1,24,-1
 451.034179688 442.875 l 1,25,-1
 525.520507812 145.083007812 l 1,26,-1
 615.842773438 442.875 l 1,27,-1
 734.479492188 442.875 l 1,28,-1
 821.098632812 140.055664062 l 1,29,-1
 896.928710938 442.875 l 1,30,-1
 997.366210938 442.875 l 1,31,-1
 877.381835938 9.3466796875 l 1,32,-1
 771.553710938 9.3466796875 l 1,33,-1
 673.139648438 333.458007812 l 1,34,-1
 575.0625 9.3466796875 l 1,35,-1
 466.874023438 9.3466796875 l 1,23,-1
1141.6171875 442.875 m 1,36,-1
 1141.6171875 283.482421875 l 1,37,38
 1187.21875 330.055664062 1187.21875 330.055664062 1251.15429688 330.502929688 c 0,39,40
 1280.45898438 331.190429688 1280.45898438 331.190429688 1310.13574219 319.856445312 c 0,41,42
 1333.37890625 310.778320312 1333.37890625 310.778320312 1349.56738281 292.6484375 c 0,43,44
 1366.13964844 272.22265625 1366.13964844 272.22265625 1367.76855469 255.98046875 c 0,45,46
 1372.43945312 193.9765625 1372.43945312 193.9765625 1372.82324219 193.583007812 c 2,47,-1
 1372.82324219 9.3486328125 l 1,48,-1
 1278.11621094 9.3486328125 l 1,49,-1
 1278.11621094 175.248046875 l 2,50,51
 1277.93945312 225.728515625 1277.93945312 225.728515625 1272.72460938 237.940429688 c 0,52,53
 1269.11914062 248.408203125 1269.11914062 248.408203125 1253.51171875 258.936523438 c 0,54,55
 1242.65917969 266.552734375 1242.65917969 266.552734375 1219.47167969 266.921875 c 0,56,57
 1196.0390625 267.686523438 1196.0390625 267.686523438 1177.34472656 256.8671875 c 0,58,59
 1154.45898438 243.872070312 1154.45898438 243.872070312 1150.04296875 226.405273438 c 0,60,61
 1141.6171875 179.004882812 1141.6171875 179.004882812 1141.6171875 166.669921875 c 2,62,-1
 1141.6171875 9.3466796875 l 1,63,-1
 1046.91015625 9.3466796875 l 1,64,-1
 1046.91015625 442.875 l 1,65,-1
 1141.6171875 442.875 l 1,36,-1
EndSplineSet
EndChar

StartChar: greater
Encoding: 62 62 29
Width: 2060
GlyphClass: 2
Flags: W
LayerCount: 2
Fore
SplineSet
903.25 1622.68066406 m 0,0,1
 910.590407243 1627.06347656 910.590407243 1627.06347656 1025.22851562 1627.06347656 c 0,2,3
 1111.18310547 1627.06347656 1111.18310547 1627.06347656 1126.9324802 1625.90614285 c 128,-1,4
 1142.68185492 1624.74880914 1142.68185492 1624.74880914 1149.5625 1617.86816406 c 0,5,6
 1155.52087103 1611.89449461 1155.52087103 1611.89449461 1158.52058176 1597.67342123 c 128,-1,7
 1161.52029248 1583.45234785 1161.52029248 1583.45234785 1167.54394531 1533.1015625 c 0,8,9
 1175.06061215 1467.25874652 1175.06061215 1467.25874652 1180.73339844 1422.75488281 c 2,10,-1
 1184.7265625 1388.77929688 l 1,11,-1
 1220.70996094 1379.99316406 l 2,12,13
 1323.38193394 1354.94085777 1323.38193394 1354.94085777 1430.20019531 1291.23242188 c 2,14,-1
 1450.59863281 1279.23144531 l 1,15,-1
 1536.921875 1347.20410156 l 2,16,17
 1574.36922119 1376.83098724 1574.36922119 1376.83098724 1593.15759255 1390.79400983 c 128,-1,18
 1611.94596391 1404.75703242 1611.94596391 1404.75703242 1621.28120953 1409.9673834 c 128,-1,19
 1630.61645514 1415.17773438 1630.61645514 1415.17773438 1636.47460938 1415.17773438 c 0,20,21
 1639.72790951 1415.17773438 1639.72790951 1415.17773438 1642.41621703 1414.40574926 c 128,-1,22
 1645.10452456 1413.63376415 1645.10452456 1413.63376415 1650.23201702 1410.14873478 c 128,-1,23
 1655.35950948 1406.66370541 1655.35950948 1406.66370541 1660.825243 1401.94784092 c 128,-1,24
 1666.29097653 1397.23197642 1666.29097653 1397.23197642 1677.2572268 1386.80690174 c 128,-1,25
 1688.22347706 1376.38182706 1688.22347706 1376.38182706 1700.28732887 1364.43622163 c 128,-1,26
 1712.35118067 1352.4906162 1712.35118067 1352.4906162 1732.83300781 1332.00878906 c 0,27,28
 1815.59277344 1248.74930582 1815.59277344 1248.74930582 1815.59277344 1238.45605469 c 0,29,30
 1815.59277344 1229.71938567 1815.59277344 1229.71938567 1803.76557578 1212.83314987 c 128,-1,31
 1791.93837813 1195.94691407 1791.93837813 1195.94691407 1737.62597656 1127.31054688 c 0,32,33
 1682.30709492 1056.46425352 1682.30709492 1056.46425352 1681.26464844 1053.33691406 c 0,34,35
 1679.25788371 1048.71016144 1679.25788371 1048.71016144 1696.05078125 1020.95800781 c 0,36,37
 1721.52053473 979.306849678 1721.52053473 979.306849678 1745.36262318 921.089542288 c 128,-1,38
 1769.20471163 862.872234898 1769.20471163 862.872234898 1781.20703125 813.065429688 c 2,39,-1
 1788.00683594 785.069335938 l 1,40,-1
 1888.76757812 773.477539062 l 2,41,42
 1987.92408747 762.810509761 1987.92408747 762.810509761 2003.51757812 757.892578125 c 0,43,44
 2020.68236322 752.463914247 2020.68236322 752.463914247 2024.09118161 733.406800968 c 128,-1,45
 2027.5 714.349687689 2027.5 714.349687689 2027.5 622.35546875 c 2,46,-1
 2027.5 510.801757812 l 1,47,-1
 2016.70703125 500.008789062 l 2,48,49
 2008.61425351 492.207445048 2008.61425351 492.207445048 1993.48167295 489.158409282 c 128,-1,50
 1978.34909239 486.109373516 1978.34909239 486.109373516 1907.56835938 478.012695312 c 0,51,52
 1810.49460212 467.217938918 1810.49460212 467.217938918 1799.22949219 464.823242188 c 0,53,54
 1792.09205848 463.63681436 1792.09205848 463.63681436 1788.88555785 457.94105475 c 128,-1,55
 1785.67905722 452.24529514 1785.67905722 452.24529514 1779.62988281 430.4375 c 0,56,57
 1772.76523031 404.186182328 1772.76523031 404.186182328 1756.57168546 359.551450852 c 128,-1,58
 1740.37814061 314.916719376 1740.37814061 314.916719376 1736.45800781 311.305664062 c 0,59,60
 1733.50388117 308.351537423 1733.50388117 308.351537423 1650.09375 388.86328125 c 2,61,-1
 1566.53613281 469.616210938 l 1,62,-1
 1576.140625 515.573242188 l 2,63,64
 1585.3359375 560.084416241 1585.3359375 560.084416241 1585.3359375 623.5234375 c 0,65,66
 1585.3359375 720.05343013 1585.3359375 720.05343013 1557.75 802.231445312 c 0,67,68
 1510.967535 942.3011887 1510.967535 942.3011887 1401.85948618 1041.14099692 c 128,-1,69
 1292.75143736 1139.98080514 1292.75143736 1139.98080514 1146.75683594 1174.45605469 c 0,70,71
 1116.68605384 1181.36931699 1116.68605384 1181.36931699 1096.77543642 1183.15573043 c 128,-1,72
 1076.864819 1184.94214386 1076.864819 1184.94214386 1026.00683594 1185.24902344 c 0,73,74
 982.695991014 1185.24902344 982.695991014 1185.24902344 955.934151637 1183.13061228 c 128,-1,75
 929.172312259 1181.01220112 929.172312259 1181.01220112 904.967215551 1175.65259085 c 128,-1,76
 880.762118843 1170.29298058 880.762118843 1170.29298058 846.08984375 1158.87011719 c 0,77,78
 794.204027675 1141.72247396 794.204027675 1141.72247396 746.401847194 1114.47256695 c 128,-1,79
 698.599666714 1087.22265993 698.599666714 1087.22265993 657.608467747 1051.89112629 c 128,-1,80
 616.61726878 1016.55959265 616.61726878 1016.55959265 582.490836452 973.247804983 c 128,-1,81
 548.364404125 929.936017314 548.364404125 929.936017314 523.448242188 880.998046875 c 0,82,83
 487.799703022 811.89241671 487.799703022 811.89241671 471.469726562 736.265625 c 0,84,85
 462.802369544 696.869607952 462.802369544 696.869607952 462.218505859 629.065673828 c 128,-1,86
 461.634642175 561.261739704 461.634642175 561.261739704 469.462890625 521.57421875 c 0,87,88
 504.830904203 345.902881444 504.830904203 345.902881444 629.05999458 223.54200933 c 128,-1,89
 753.289084958 101.181137216 753.289084958 101.181137216 928.440429688 69.3955078125 c 0,90,91
 981.972020468 59.8405243113 981.972020468 59.8405243113 1052.57971191 63.4410400391 c 128,-1,92
 1123.18740336 67.0415557668 1123.18740336 67.0415557668 1174.32324219 81.7861328125 c 0,93,94
 1179.73611452 83.5855352369 1179.73611452 83.5855352369 1197.24697142 68.6697771882 c 128,-1,95
 1214.75782832 53.7540191396 1214.75782832 53.7540191396 1266.27832031 3.4296875 c 0,96,97
 1349.36575558 -76.7705736624 1349.36575558 -76.7705736624 1351.04492188 -80.12890625 c 0,98,99
 1352.20662136 -83.2262981559 1352.20662136 -83.2262981559 1327.58068196 -93.7924376636 c 128,-1,100
 1302.95474256 -104.358577171 1302.95474256 -104.358577171 1266.68233887 -116.565960774 c 128,-1,101
 1230.40993518 -128.773344376 1230.40993518 -128.773344376 1201.11132812 -136.100585938 c 0,102,103
 1183.92871094 -140.396677897 1183.92871094 -140.396677897 1183.92871094 -142.490234375 c 0,104,105
 1183.92871094 -148.450440441 1183.92871094 -148.450440441 1171.34150119 -250.456142578 c 128,-1,106
 1158.75429144 -352.461844715 1158.75429144 -352.461844715 1157.54980469 -356.383789062 c 0,107,108
 1153.93733839 -368.887019213 1153.93733839 -368.887019213 1140.61502081 -371.882620461 c 0,109,110
 1122.80197125 -375.519648275 1122.80197125 -375.519648275 1032.0078125 -376.78125 c 0,111,112
 922.880717904 -378.966474882 922.880717904 -378.966474882 910.069335938 -375.18359375 c 0,113,114
 898.534730297 -372.264243767 898.534730297 -372.264243767 893.276367188 -364.780273438 c 0,115,116
 888.266471222 -355.575048943 888.266471222 -355.575048943 876.09375 -249.641601562 c 0,117,118
 863.12181143 -142.872026488 863.12181143 -142.872026488 862.10546875 -140.892578125 c 0,119,120
 860.775464294 -139.562573669 860.775464294 -139.562573669 817.725585938 -128.092773438 c 0,121,122
 714.541832089 -100.500133924 714.541832089 -100.500133924 623.022460938 -45.3330078125 c 0,123,124
 599.401924208 -31.3134948621 599.401924208 -31.3134948621 594.63671875 -33.33203125 c 0,125,126
 589.547531792 -35.244341173 589.547531792 -35.244341173 509.870117188 -98.1103515625 c 0,127,128
 430.932927668 -161.096310323 430.932927668 -161.096310323 421.908203125 -164.875 c 0,129,130
 412.84956202 -169.048846277 412.84956202 -169.048846277 403.517578125 -166.881835938 c 0,131,132
 393.743955443 -163.829651093 393.743955443 -163.829651093 313.569335938 -82.9140625 c 0,133,134
 276.274938566 -45.6196651287 276.274938566 -45.6196651287 260.232553001 -28.6576731987 c 128,-1,135
 244.190167436 -11.6956812687 244.190167436 -11.6956812687 238.298696999 -3.36771742632 c 128,-1,136
 232.407226562 4.96024641606 232.407226562 4.96024641606 232.407226562 10.638671875 c 0,137,138
 232.407226562 20.0163280504 232.407226562 20.0163280504 252.659171993 48.157789187 c 128,-1,139
 272.911117423 76.2992503236 272.911117423 76.2992503236 345.149414062 166.962890625 c 0,140,141
 368.333007812 195.978701296 368.333007812 195.978701296 368.333007812 197.744140625 c 128,-1,142
 368.333007812 199.479964656 368.333007812 199.479964656 349.532226562 230.532226562 c 0,143,144
 292.130577946 327.496887352 292.130577946 327.496887352 266.36328125 434.431640625 c 0,145,146
 265.545329928 437.871156436 265.545329928 437.871156436 264.477139043 443.582424722 c 0,147,148
 261.559963197 459.179612573 261.559963197 459.179612573 250.682999145 462.95425282 c 128,-1,149
 239.806035093 466.728893067 239.806035093 466.728893067 177.461426628 473.779546699 c 0,150,151
 170.063900546 474.61614501 170.063900546 474.61614501 165.751754661 475.105301759 c 128,-1,152
 161.439608776 475.594458509 161.439608776 475.594458509 154.162338962 476.428119335 c 128,-1,153
 146.885069148 477.261780161 146.885069148 477.261780161 140.431640625 478.012695312 c 0,154,155
 50.927235809 488.105122587 50.927235809 488.105122587 40.0791015625 492.000976562 c 0,156,157
 26.3016440104 497.401634573 26.3016440104 497.401634573 23.3910563802 517.590369808 c 128,-1,158
 20.48046875 537.779105044 20.48046875 537.779105044 20.48046875 627.537109375 c 0,159,160
 20.48046875 710.404296875 20.48046875 710.404296875 21.5967182214 726.014953506 c 128,-1,161
 22.7129676928 741.625610137 22.7129676928 741.625610137 29.2861328125 749.0859375 c 128,-1,162
 35.8218765669 756.520282458 35.8218765669 756.520282458 51.8634530848 759.61121021 c 128,-1,163
 67.9050296027 762.702137963 67.9050296027 762.702137963 144.404296875 771.470703125 c 0,164,165
 251.322523329 783.926518193 251.322523329 783.926518193 254.750976562 785.069335938 c 0,166,167
 259.209436521 786.556095108 259.209436521 786.556095108 267.939453125 822.260742188 c 0,168,169
 294.420817134 923.960057698 294.420817134 923.960057698 353.095703125 1024.5625 c 2,170,-1
 368.680664062 1051.75976562 l 1,171,-1
 343.1015625 1084.54882812 l 2,172,173
 324.554123571 1107.71331249 324.554123571 1107.71331249 274.739257812 1171.30175781 c 0,174,175
 232.366210938 1225.59340803 232.366210938 1225.59340803 232.366210938 1237.26757812 c 0,176,177
 232.67685411 1244.85498202 232.67685411 1244.85498202 247.86246435 1262.54910368 c 128,-1,178
 263.048074589 1280.24322534 263.048074589 1280.24322534 314.327148438 1332.41796875 c 0,179,180
 370.340372657 1389.62183332 370.340372657 1389.62183332 385.134880624 1402.39978385 c 128,-1,181
 399.92938859 1415.17773438 399.92938859 1415.17773438 409.88671875 1415.17773438 c 0,182,183
 416.169214251 1415.17773438 416.169214251 1415.17773438 425.405900361 1410.08554863 c 128,-1,184
 434.642586471 1404.99336289 434.642586471 1404.99336289 452.871443389 1391.48183418 c 128,-1,185
 471.100300308 1377.97030547 471.100300308 1377.97030547 510.23828125 1347.20410156 c 2,186,-1
 596.602539062 1278.84179688 l 1,187,-1
 619.397460938 1292.83007812 l 2,188,189
 719.917499645 1353.14963168 719.917499645 1353.14963168 824.094726562 1379.19433594 c 0,190,191
 857.914689793 1387.82386948 857.914689793 1387.82386948 860.876953125 1390.78613281 c 0,192,193
 862.945737786 1392.85491747 862.945737786 1392.85491747 876.073242188 1498.73632812 c 0,194,195
 888.298940245 1604.01013903 888.298940245 1604.01013903 892.45703125 1611.47851562 c 0,196,197
 896.316171875 1619.19679688 896.316171875 1619.19679688 903.25 1622.68066406 c 0,0,1
910.048828125 1000.96972656 m 0,198,199
 925.167924511 1003.9455779 925.167924511 1003.9455779 979.666015625 1002.61572266 c 128,-1,200
 1034.16410674 1001.28586742 1034.16410674 1001.28586742 1060.37207031 997.365234375 c 0,201,202
 1180.74449558 979.240301412 1180.74449558 979.240301412 1246.29003906 890.623046875 c 0,203,204
 1263.13053142 867.616016796 1263.13053142 867.616016796 1269.77203119 851.411611028 c 128,-1,205
 1276.41353095 835.20720526 1276.41353095 835.20720526 1278.93630215 811.501149389 c 128,-1,206
 1281.45907335 787.795093518 1281.45907335 787.795093518 1281.88378906 735.5078125 c 0,207,208
 1282.20219171 696.619093898 1282.20219171 696.619093898 1283.38133781 674.500988543 c 128,-1,209
 1284.5604839 652.382883189 1284.5604839 652.382883189 1288.54079659 631.965945661 c 128,-1,210
 1292.52110928 611.549008133 1292.52110928 611.549008133 1298.58937614 596.621258319 c 128,-1,211
 1304.65764299 581.693508504 1304.65764299 581.693508504 1316.27050781 559.584960938 c 0,212,213
 1331.06667812 531.183074368 1331.06667812 531.183074368 1381.27784899 474.847072661 c 128,-1,214
 1431.48901986 418.511070954 1431.48901986 418.511070954 1699.67578125 129.770507812 c 0,215,216
 1761.77631242 62.8945183283 1761.77631242 62.8945183283 1844.43855466 -26.2244139018 c 128,-1,217
 1927.1007969 -115.343346132 1927.1007969 -115.343346132 1966.71183597 -158.014843911 c 128,-1,218
 2006.32287503 -200.686341689 2006.32287503 -200.686341689 2010.7265625 -205.26171875 c 0,219,220
 2023.29989653 -219.031259721 2023.29989653 -219.031259721 2025.511231 -224.283432231 c 128,-1,221
 2027.72256547 -229.535604741 2027.72256547 -229.535604741 2025.92285156 -241.245117188 c 0,222,223
 2022.32136213 -264.066291075 2022.32136213 -264.066291075 2006.66244778 -292.65279747 c 128,-1,224
 1991.00353343 -321.239303864 1991.00353343 -321.239303864 1971.54785156 -340.388671875 c 0,225,226
 1943.60797748 -367.421035602 1943.60797748 -367.421035602 1900.02938185 -385.380768197 c 128,-1,227
 1856.45078622 -403.340500791 1856.45078622 -403.340500791 1831.60839844 -397.958007812 c 0,228,229
 1831.34720094 -397.902445809 1831.34720094 -397.902445809 1830.84645428 -397.801143621 c 0,230,231
 1821.70152968 -395.951104548 1821.70152968 -395.951104548 1773.08169796 -345.617465926 c 128,-1,232
 1724.46186625 -295.283827305 1724.46186625 -295.283827305 1441.88780058 4.86796535114 c 0,233,234
 1437.26451684 9.77884395258 1437.26451684 9.77884395258 1434.93164062 12.2568359375 c 0,235,236
 1227.50071572 232.314827521 1227.50071572 232.314827521 1184.19169235 273.535793786 c 128,-1,237
 1140.88266897 314.756760051 1140.88266897 314.756760051 1099.8984375 330.905273438 c 0,238,239
 1048.18945609 351.692382812 1048.18945609 351.692382812 967.966796875 351.692382812 c 0,240,241
 897.803130285 351.692382812 897.803130285 351.692382812 859.77147938 368.685099787 c 128,-1,242
 821.739828476 385.677816761 821.739828476 385.677816761 776.458007812 437.2578125 c 0,243,244
 744.800857871 473.439937119 744.800857871 473.439937119 705.400137975 537.667032603 c 128,-1,245
 665.999418078 601.894128087 665.999418078 601.894128087 662.118164062 623.973632812 c 0,246,247
 659.444438708 638.595340678 659.444438708 638.595340678 665.607953563 652.914163583 c 128,-1,248
 671.771468419 667.232986489 671.771468419 667.232986489 681.717773438 669.951171875 c 0,249,250
 688.998530954 670.797123304 688.998530954 670.797123304 695.593444824 670.04864502 c 128,-1,251
 702.188358694 669.300166735 702.188358694 669.300166735 715.353759766 662.650146484 c 128,-1,252
 728.519160837 656.000126234 728.519160837 656.000126234 745.985046387 645.206115723 c 128,-1,253
 763.450931936 634.412105211 763.450931936 634.412105211 792.473632812 615.166992188 c 0,254,255
 863.242698956 567.975976449 863.242698956 567.975976449 875.233398438 563.189453125 c 0,256,257
 901.888397915 553.005880152 901.888397915 553.005880152 942.317763154 580.949628909 c 128,-1,258
 982.747128393 608.893377666 982.747128393 608.893377666 1006.77636719 653.935546875 c 0,259,260
 1021.58235908 682.031521021 1021.58235908 682.031521021 1034.77213657 718.407547588 c 128,-1,261
 1047.96191406 754.783574156 1047.96191406 754.783574156 1047.96191406 767.88671875 c 0,262,263
 1047.96191406 797.56641105 1047.96191406 797.56641105 1018.82371463 826.708024271 c 128,-1,264
 989.685515192 855.849637492 989.685515192 855.849637492 914.431640625 901.416015625 c 0,265,266
 857.203388218 936.186602054 857.203388218 936.186602054 845.136096043 949.23282069 c 128,-1,267
 833.068803869 962.279039326 833.068803869 962.279039326 844.47265625 976.987304688 c 0,268,269
 854.295532832 989.119869429 854.295532832 989.119869429 910.048828125 1000.96972656 c 0,198,199
EndSplineSet
EndChar

StartChar: question
Encoding: 63 63 30
Width: 1251
GlyphClass: 2
Flags: W
LayerCount: 2
Fore
SplineSet
751 378 m 1,0,-1
 496 378 l 1,1,2
 495 433 495 433 495 445 c 0,3,4
 495 569 495 569 536 649 c 128,-1,5
 577 729 577 729 700 829 c 128,-1,6
 823 929 823 929 847 960 c 0,7,8
 884 1009 884 1009 884 1068 c 0,9,10
 884 1150 884 1150 818.5 1208.5 c 128,-1,11
 753 1267 753 1267 642 1267 c 0,12,13
 535 1267 535 1267 463 1206 c 128,-1,14
 391 1145 391 1145 364 1020 c 1,15,-1
 106 1052 l 1,16,17
 117 1231 117 1231 258.5 1356 c 128,-1,18
 400 1481 400 1481 630 1481 c 0,19,20
 872 1481 872 1481 1015 1354.5 c 128,-1,21
 1158 1228 1158 1228 1158 1060 c 0,22,23
 1158 967 1158 967 1105.5 884 c 128,-1,24
 1053 801 1053 801 881 658 c 0,25,26
 792 584 792 584 770.5 539 c 128,-1,27
 749 494 749 494 751 378 c 1,0,-1
496 0 m 1,28,-1
 496 281 l 1,29,-1
 777 281 l 1,30,-1
 777 0 l 1,31,-1
 496 0 l 1,28,-1
EndSplineSet
EndChar

StartChar: at
Encoding: 64 64 31
Width: 1997
GlyphClass: 2
Flags: W
LayerCount: 2
Fore
SplineSet
1777 19 m 1,0,-1
 1990 19 l 1,1,2
 1890 -184 1890 -184 1683 -299 c 0,3,4
 1446 -431 1446 -431 1105 -431 c 0,5,6
 775 -431 775 -431 535 -319.5 c 128,-1,7
 295 -208 295 -208 178 9.5 c 128,-1,8
 61 227 61 227 61 483 c 0,9,10
 61 764 61 764 194 1006.5 c 128,-1,11
 327 1249 327 1249 558 1370.5 c 128,-1,12
 789 1492 789 1492 1086 1492 c 0,13,14
 1338 1492 1338 1492 1534 1394 c 128,-1,15
 1730 1296 1730 1296 1833.5 1115.5 c 128,-1,16
 1937 935 1937 935 1937 721 c 0,17,18
 1937 466 1937 466 1780 260 c 0,19,20
 1583 0 1583 0 1275 0 c 0,21,22
 1192 0 1192 0 1150 29 c 128,-1,23
 1108 58 1108 58 1094 114 c 1,24,25
 976 0 976 0 822 0 c 0,26,27
 656 0 656 0 546.5 114.5 c 128,-1,28
 437 229 437 229 437 419 c 0,29,30
 437 654 437 654 569 848 c 0,31,32
 729 1084 729 1084 979 1084 c 0,33,34
 1157 1084 1157 1084 1242 948 c 1,35,-1
 1267 1059 l 1,36,-1
 1531 1059 l 1,37,-1
 1380 342 l 2,38,39
 1366 274 1366 274 1366 254 c 0,40,41
 1366 229 1366 229 1377.5 216.5 c 128,-1,42
 1389 204 1389 204 1405 204 c 0,43,44
 1453 204 1453 204 1529 262 c 0,45,46
 1631 338 1631 338 1694 466 c 128,-1,47
 1757 594 1757 594 1757 731 c 0,48,49
 1757 977 1757 977 1579 1142.5 c 128,-1,50
 1401 1308 1401 1308 1082 1308 c 0,51,52
 811 1308 811 1308 622.5 1197.5 c 128,-1,53
 434 1087 434 1087 338.5 886.5 c 128,-1,54
 243 686 243 686 243 469 c 0,55,56
 243 258 243 258 349.5 85 c 128,-1,57
 456 -88 456 -88 648.5 -167.5 c 128,-1,58
 841 -247 841 -247 1089 -247 c 0,59,60
 1328 -247 1328 -247 1500 -180.5 c 128,-1,61
 1672 -114 1672 -114 1777 19 c 1,0,-1
696 430 m 0,62,63
 696 303 696 303 747.5 243 c 128,-1,64
 799 183 799 183 875 183 c 0,65,66
 932 183 932 183 982 211 c 0,67,68
 1020 231 1020 231 1057 274 c 0,69,70
 1110 335 1110 335 1148.5 452 c 128,-1,71
 1187 569 1187 569 1187 670 c 0,72,73
 1187 783 1187 783 1134.5 843.5 c 128,-1,74
 1082 904 1082 904 1002 904 c 0,75,76
 916 904 916 904 843 837.5 c 128,-1,77
 770 771 770 771 733 648 c 128,-1,78
 696 525 696 525 696 430 c 0,62,63
EndSplineSet
EndChar

StartChar: A
Encoding: 65 65 32
Width: 1479
GlyphClass: 2
Flags: W
LayerCount: 2
Fore
SplineSet
1471 0 m 1,0,-1
 1149 0 l 1,1,-1
 1021 333 l 1,2,-1
 435 333 l 1,3,-1
 314 0 l 1,4,-1
 0 0 l 1,5,-1
 571 1466 l 1,6,-1
 884 1466 l 1,7,-1
 1471 0 l 1,0,-1
926 580 m 1,8,-1
 724 1124 l 1,9,-1
 526 580 l 1,10,-1
 926 580 l 1,8,-1
EndSplineSet
EndChar

StartChar: B
Encoding: 66 66 33
Width: 1479
GlyphClass: 2
Flags: W
LayerCount: 2
Fore
SplineSet
150 1466 m 1,0,-1
 736 1466 l 2,1,2
 910 1466 910 1466 995.5 1451.5 c 128,-1,3
 1081 1437 1081 1437 1148.5 1391 c 128,-1,4
 1216 1345 1216 1345 1261 1268.5 c 128,-1,5
 1306 1192 1306 1192 1306 1097 c 0,6,7
 1306 994 1306 994 1250.5 908 c 128,-1,8
 1195 822 1195 822 1100 779 c 1,9,10
 1234 740 1234 740 1306 646 c 128,-1,11
 1378 552 1378 552 1378 425 c 0,12,13
 1378 325 1378 325 1331.5 230.5 c 128,-1,14
 1285 136 1285 136 1204.5 79.5 c 128,-1,15
 1124 23 1124 23 1006 10 c 0,16,17
 932 2 932 2 649 0 c 2,18,-1
 150 0 l 1,19,-1
 150 1466 l 1,0,-1
446 1222 m 1,20,-1
 446 883 l 1,21,-1
 640 883 l 2,22,23
 813 883 813 883 855 888 c 0,24,25
 931 897 931 897 974.5 940.5 c 128,-1,26
 1018 984 1018 984 1018 1055 c 0,27,28
 1018 1123 1018 1123 980.5 1165.5 c 128,-1,29
 943 1208 943 1208 869 1217 c 0,30,31
 825 1222 825 1222 616 1222 c 2,32,-1
 446 1222 l 1,20,-1
446 639 m 1,33,-1
 446 247 l 1,34,-1
 720 247 l 2,35,36
 880 247 880 247 923 256 c 0,37,38
 989 268 989 268 1030.5 314.5 c 128,-1,39
 1072 361 1072 361 1072 439 c 0,40,41
 1072 505 1072 505 1040 551 c 128,-1,42
 1008 597 1008 597 947.5 618 c 128,-1,43
 887 639 887 639 685 639 c 2,44,-1
 446 639 l 1,33,-1
EndSplineSet
EndChar

StartChar: C
Encoding: 67 67 34
Width: 1479
GlyphClass: 2
Flags: W
LayerCount: 2
Fore
SplineSet
1087 539 m 1,0,-1
 1374 448 l 1,1,2
 1308 208 1308 208 1154.5 91.5 c 128,-1,3
 1001 -25 1001 -25 765 -25 c 0,4,5
 473 -25 473 -25 285 174.5 c 128,-1,6
 97 374 97 374 97 720 c 0,7,8
 97 1086 97 1086 286 1288.5 c 128,-1,9
 475 1491 475 1491 783 1491 c 0,10,11
 1052 1491 1052 1491 1220 1332 c 0,12,13
 1320 1238 1320 1238 1370 1062 c 1,14,-1
 1077 992 l 1,15,16
 1051 1106 1051 1106 968.5 1172 c 128,-1,17
 886 1238 886 1238 768 1238 c 0,18,19
 605 1238 605 1238 503.5 1121 c 128,-1,20
 402 1004 402 1004 402 742 c 0,21,22
 402 464 402 464 502 346 c 128,-1,23
 602 228 602 228 762 228 c 0,24,25
 880 228 880 228 965 303 c 128,-1,26
 1050 378 1050 378 1087 539 c 1,0,-1
EndSplineSet
EndChar

StartChar: D
Encoding: 68 68 35
Width: 1479
GlyphClass: 2
Flags: W
LayerCount: 2
Fore
SplineSet
148 1466 m 1,0,-1
 689 1466 l 2,1,2
 872 1466 872 1466 968 1438 c 0,3,4
 1097 1400 1097 1400 1189 1303 c 128,-1,5
 1281 1206 1281 1206 1329 1065.5 c 128,-1,6
 1377 925 1377 925 1377 719 c 0,7,8
 1377 538 1377 538 1332 407 c 0,9,10
 1277 247 1277 247 1175 148 c 0,11,12
 1098 73 1098 73 967 31 c 0,13,14
 869 0 869 0 705 0 c 2,15,-1
 148 0 l 1,16,-1
 148 1466 l 1,0,-1
444 1218 m 1,17,-1
 444 247 l 1,18,-1
 665 247 l 2,19,20
 789 247 789 247 844 261 c 0,21,22
 916 279 916 279 963.5 322 c 128,-1,23
 1011 365 1011 365 1041 463.5 c 128,-1,24
 1071 562 1071 562 1071 732 c 256,25,26
 1071 902 1071 902 1041 993 c 128,-1,27
 1011 1084 1011 1084 957 1135 c 128,-1,28
 903 1186 903 1186 820 1204 c 0,29,30
 758 1218 758 1218 577 1218 c 2,31,-1
 444 1218 l 1,17,-1
EndSplineSet
EndChar

StartChar: E
Encoding: 69 69 36
Width: 1366
GlyphClass: 2
Flags: W
LayerCount: 2
Fore
SplineSet
149 0 m 1,0,-1
 149 1466 l 1,1,-1
 1236 1466 l 1,2,-1
 1236 1218 l 1,3,-1
 445 1218 l 1,4,-1
 445 893 l 1,5,-1
 1181 893 l 1,6,-1
 1181 646 l 1,7,-1
 445 646 l 1,8,-1
 445 247 l 1,9,-1
 1264 247 l 1,10,-1
 1264 0 l 1,11,-1
 149 0 l 1,0,-1
EndSplineSet
EndChar

StartChar: F
Encoding: 70 70 37
Width: 1251
GlyphClass: 2
Flags: W
LayerCount: 2
Fore
SplineSet
151 0 m 1,0,-1
 151 1466 l 1,1,-1
 1156 1466 l 1,2,-1
 1156 1218 l 1,3,-1
 447 1218 l 1,4,-1
 447 871 l 1,5,-1
 1059 871 l 1,6,-1
 1059 623 l 1,7,-1
 447 623 l 1,8,-1
 447 0 l 1,9,-1
 151 0 l 1,0,-1
EndSplineSet
EndChar

StartChar: G
Encoding: 71 71 38
Width: 1593
GlyphClass: 2
Flags: W
LayerCount: 2
Fore
SplineSet
831 539 m 1,0,-1
 831 786 l 1,1,-1
 1469 786 l 1,2,-1
 1469 202 l 1,3,4
 1376 112 1376 112 1199.5 43.5 c 128,-1,5
 1023 -25 1023 -25 842 -25 c 0,6,7
 612 -25 612 -25 441 71.5 c 128,-1,8
 270 168 270 168 184 347.5 c 128,-1,9
 98 527 98 527 98 738 c 0,10,11
 98 967 98 967 194 1145 c 128,-1,12
 290 1323 290 1323 475 1418 c 0,13,14
 616 1491 616 1491 826 1491 c 0,15,16
 1099 1491 1099 1491 1252.5 1376.5 c 128,-1,17
 1406 1262 1406 1262 1450 1060 c 1,18,-1
 1156 1005 l 1,19,20
 1125 1113 1125 1113 1039.5 1175.5 c 128,-1,21
 954 1238 954 1238 826 1238 c 0,22,23
 632 1238 632 1238 517.5 1115 c 128,-1,24
 403 992 403 992 403 750 c 0,25,26
 403 489 403 489 519 358.5 c 128,-1,27
 635 228 635 228 823 228 c 0,28,29
 916 228 916 228 1009.5 264.5 c 128,-1,30
 1103 301 1103 301 1170 353 c 1,31,-1
 1170 539 l 1,32,-1
 831 539 l 1,0,-1
EndSplineSet
EndChar

StartChar: H
Encoding: 72 72 39
Width: 1479
GlyphClass: 2
Flags: W
LayerCount: 2
Fore
SplineSet
150 0 m 1,0,-1
 150 1466 l 1,1,-1
 446 1466 l 1,2,-1
 446 889 l 1,3,-1
 1026 889 l 1,4,-1
 1026 1466 l 1,5,-1
 1322 1466 l 1,6,-1
 1322 0 l 1,7,-1
 1026 0 l 1,8,-1
 1026 641 l 1,9,-1
 446 641 l 1,10,-1
 446 0 l 1,11,-1
 150 0 l 1,0,-1
EndSplineSet
EndChar

StartChar: I
Encoding: 73 73 40
Width: 569
GlyphClass: 2
Flags: W
LayerCount: 2
Fore
SplineSet
140 0 m 1,0,-1
 140 1466 l 1,1,-1
 436 1466 l 1,2,-1
 436 0 l 1,3,-1
 140 0 l 1,0,-1
EndSplineSet
EndChar

StartChar: J
Encoding: 74 74 41
Width: 1139
GlyphClass: 2
Flags: W
LayerCount: 2
Fore
SplineSet
678 1466 m 1,0,-1
 973 1466 l 1,1,-1
 973 538 l 2,2,3
 973 356 973 356 941 258 c 0,4,5
 898 130 898 130 785 52.5 c 128,-1,6
 672 -25 672 -25 487 -25 c 0,7,8
 270 -25 270 -25 153 96.5 c 128,-1,9
 36 218 36 218 35 453 c 1,10,-1
 314 485 l 1,11,12
 319 359 319 359 351 307 c 0,13,14
 399 228 399 228 497 228 c 0,15,16
 596 228 596 228 637 284.5 c 128,-1,17
 678 341 678 341 678 519 c 2,18,-1
 678 1466 l 1,0,-1
EndSplineSet
EndChar

StartChar: K
Encoding: 75 75 42
Width: 1479
GlyphClass: 2
Flags: W
LayerCount: 2
Fore
SplineSet
153 0 m 1,0,-1
 153 1466 l 1,1,-1
 449 1466 l 1,2,-1
 449 815 l 1,3,-1
 1047 1466 l 1,4,-1
 1445 1466 l 1,5,-1
 893 895 l 1,6,-1
 1475 0 l 1,7,-1
 1092 0 l 1,8,-1
 689 688 l 1,9,-1
 449 443 l 1,10,-1
 449 0 l 1,11,-1
 153 0 l 1,0,-1
EndSplineSet
EndChar

StartChar: L
Encoding: 76 76 43
Width: 1251
GlyphClass: 2
Flags: W
LayerCount: 2
Fore
SplineSet
157 0 m 1,0,-1
 157 1454 l 1,1,-1
 453 1454 l 1,2,-1
 453 247 l 1,3,-1
 1189 247 l 1,4,-1
 1189 0 l 1,5,-1
 157 0 l 1,0,-1
EndSplineSet
EndChar

StartChar: M
Encoding: 77 77 44
Width: 1706
GlyphClass: 2
Flags: W
LayerCount: 2
Fore
SplineSet
145 0 m 1,0,-1
 145 1466 l 1,1,-1
 588 1466 l 1,2,-1
 854 466 l 1,3,-1
 1117 1466 l 1,4,-1
 1561 1466 l 1,5,-1
 1561 0 l 1,6,-1
 1286 0 l 1,7,-1
 1286 1154 l 1,8,-1
 995 0 l 1,9,-1
 710 0 l 1,10,-1
 420 1154 l 1,11,-1
 420 0 l 1,12,-1
 145 0 l 1,0,-1
EndSplineSet
EndChar

StartChar: N
Encoding: 78 78 45
Width: 1479
GlyphClass: 2
Flags: W
LayerCount: 2
Fore
SplineSet
152 0 m 1,0,-1
 152 1466 l 1,1,-1
 440 1466 l 1,2,-1
 1040 487 l 1,3,-1
 1040 1466 l 1,4,-1
 1315 1466 l 1,5,-1
 1315 0 l 1,6,-1
 1018 0 l 1,7,-1
 427 956 l 1,8,-1
 427 0 l 1,9,-1
 152 0 l 1,0,-1
EndSplineSet
EndChar

StartChar: O
Encoding: 79 79 46
Width: 1593
GlyphClass: 2
Flags: W
LayerCount: 2
Fore
SplineSet
89 724 m 0,0,1
 89 948 89 948 156 1100 c 0,2,3
 206 1212 206 1212 292.5 1301 c 128,-1,4
 379 1390 379 1390 482 1433 c 0,5,6
 619 1491 619 1491 798 1491 c 0,7,8
 1122 1491 1122 1491 1316.5 1290 c 128,-1,9
 1511 1089 1511 1089 1511 731 c 0,10,11
 1511 376 1511 376 1318 175.5 c 128,-1,12
 1125 -25 1125 -25 802 -25 c 0,13,14
 475 -25 475 -25 282 174.5 c 128,-1,15
 89 374 89 374 89 724 c 0,0,1
394 734 m 0,16,17
 394 485 394 485 509 356.5 c 128,-1,18
 624 228 624 228 801 228 c 256,19,20
 978 228 978 228 1091.5 355.5 c 128,-1,21
 1205 483 1205 483 1205 738 c 0,22,23
 1205 990 1205 990 1094.5 1114 c 128,-1,24
 984 1238 984 1238 801 1238 c 256,25,26
 618 1238 618 1238 506 1112.5 c 128,-1,27
 394 987 394 987 394 734 c 0,16,17
EndSplineSet
EndChar

StartChar: P
Encoding: 80 80 47
Width: 1366
GlyphClass: 2
Flags: W
LayerCount: 2
Fore
SplineSet
149 0 m 1,0,-1
 149 1466 l 1,1,-1
 624 1466 l 2,2,3
 894 1466 894 1466 976 1444 c 0,4,5
 1102 1411 1102 1411 1187 1300.5 c 128,-1,6
 1272 1190 1272 1190 1272 1015 c 0,7,8
 1272 880 1272 880 1223 788 c 128,-1,9
 1174 696 1174 696 1098.5 643.5 c 128,-1,10
 1023 591 1023 591 945 574 c 0,11,12
 839 553 839 553 638 553 c 2,13,-1
 445 553 l 1,14,-1
 445 0 l 1,15,-1
 149 0 l 1,0,-1
445 1218 m 1,16,-1
 445 802 l 1,17,-1
 607 802 l 2,18,19
 782 802 782 802 841 825 c 128,-1,20
 900 848 900 848 933.5 897 c 128,-1,21
 967 946 967 946 967 1011 c 0,22,23
 967 1091 967 1091 920 1143 c 128,-1,24
 873 1195 873 1195 801 1208 c 0,25,26
 748 1218 748 1218 588 1218 c 2,27,-1
 445 1218 l 1,16,-1
EndSplineSet
EndChar

StartChar: Q
Encoding: 81 81 48
Width: 1593
GlyphClass: 2
Flags: W
LayerCount: 2
Fore
SplineSet
1329 186 m 1,0,1
 1438 108 1438 108 1566 62 c 1,2,-1
 1457 -147 l 1,3,4
 1390 -127 1390 -127 1326 -92 c 0,5,6
 1312 -85 1312 -85 1129 38 c 1,7,8
 985 -25 985 -25 810 -25 c 0,9,10
 472 -25 472 -25 280.5 174 c 128,-1,11
 89 373 89 373 89 733 c 0,12,13
 89 1092 89 1092 281 1291.5 c 128,-1,14
 473 1491 473 1491 802 1491 c 0,15,16
 1128 1491 1128 1491 1319 1291.5 c 128,-1,17
 1510 1092 1510 1092 1510 733 c 0,18,19
 1510 543 1510 543 1457 399 c 0,20,21
 1417 289 1417 289 1329 186 c 1,0,1
1091 353 m 1,22,23
 1148 420 1148 420 1176.5 515 c 128,-1,24
 1205 610 1205 610 1205 733 c 0,25,26
 1205 987 1205 987 1093 1112.5 c 128,-1,27
 981 1238 981 1238 800 1238 c 256,28,29
 619 1238 619 1238 506.5 1112 c 128,-1,30
 394 986 394 986 394 733 c 0,31,32
 394 476 394 476 506.5 348.5 c 128,-1,33
 619 221 619 221 791 221 c 0,34,35
 855 221 855 221 912 242 c 1,36,37
 822 301 822 301 729 334 c 1,38,-1
 812 503 l 1,39,40
 958 453 958 453 1091 353 c 1,22,23
EndSplineSet
EndChar

StartChar: R
Encoding: 82 82 49
Width: 1479
GlyphClass: 2
Flags: W
LayerCount: 2
Fore
SplineSet
150 0 m 1,0,-1
 150 1466 l 1,1,-1
 773 1466 l 2,2,3
 1008 1466 1008 1466 1114.5 1426.5 c 128,-1,4
 1221 1387 1221 1387 1285 1286 c 128,-1,5
 1349 1185 1349 1185 1349 1055 c 0,6,7
 1349 890 1349 890 1252 782.5 c 128,-1,8
 1155 675 1155 675 962 647 c 1,9,10
 1058 591 1058 591 1120.5 524 c 128,-1,11
 1183 457 1183 457 1289 286 c 2,12,-1
 1468 0 l 1,13,-1
 1114 0 l 1,14,-1
 900 319 l 2,15,16
 786 490 786 490 744 534.5 c 128,-1,17
 702 579 702 579 655 595.5 c 128,-1,18
 608 612 608 612 506 612 c 2,19,-1
 446 612 l 1,20,-1
 446 0 l 1,21,-1
 150 0 l 1,0,-1
446 846 m 1,22,-1
 665 846 l 2,23,24
 878 846 878 846 931 864 c 128,-1,25
 984 882 984 882 1014 926 c 128,-1,26
 1044 970 1044 970 1044 1036 c 0,27,28
 1044 1110 1044 1110 1004.5 1155.5 c 128,-1,29
 965 1201 965 1201 893 1213 c 0,30,31
 857 1218 857 1218 677 1218 c 2,32,-1
 446 1218 l 1,33,-1
 446 846 l 1,22,-1
EndSplineSet
EndChar

StartChar: S
Encoding: 83 83 50
Width: 1366
GlyphClass: 2
Flags: W
LayerCount: 2
Fore
SplineSet
74 477 m 1,0,-1
 362 505 l 1,1,2
 388 360 388 360 467.5 292 c 128,-1,3
 547 224 547 224 682 224 c 0,4,5
 825 224 825 224 897.5 284.5 c 128,-1,6
 970 345 970 345 970 426 c 0,7,8
 970 478 970 478 939.5 514.5 c 128,-1,9
 909 551 909 551 833 578 c 0,10,11
 781 596 781 596 596 642 c 0,12,13
 358 701 358 701 262 787 c 0,14,15
 127 908 127 908 127 1082 c 0,16,17
 127 1194 127 1194 190.5 1291.5 c 128,-1,18
 254 1389 254 1389 373.5 1440 c 128,-1,19
 493 1491 493 1491 662 1491 c 0,20,21
 938 1491 938 1491 1077.5 1370 c 128,-1,22
 1217 1249 1217 1249 1224 1047 c 1,23,-1
 928 1034 l 1,24,25
 909 1147 909 1147 846.5 1196.5 c 128,-1,26
 784 1246 784 1246 659 1246 c 0,27,28
 530 1246 530 1246 457 1193 c 0,29,30
 410 1159 410 1159 410 1102 c 0,31,32
 410 1050 410 1050 454 1013 c 0,33,34
 510 966 510 966 726 915 c 128,-1,35
 942 864 942 864 1045.5 809.5 c 128,-1,36
 1149 755 1149 755 1207.5 660.5 c 128,-1,37
 1266 566 1266 566 1266 427 c 0,38,39
 1266 301 1266 301 1196 191 c 128,-1,40
 1126 81 1126 81 998 27.5 c 128,-1,41
 870 -26 870 -26 679 -26 c 0,42,43
 401 -26 401 -26 252 102.5 c 128,-1,44
 103 231 103 231 74 477 c 1,0,-1
EndSplineSet
EndChar

StartChar: T
Encoding: 84 84 51
Width: 1251
GlyphClass: 2
Flags: W
LayerCount: 2
Fore
SplineSet
479 0 m 1,0,-1
 479 1218 l 1,1,-1
 44 1218 l 1,2,-1
 44 1466 l 1,3,-1
 1209 1466 l 1,4,-1
 1209 1218 l 1,5,-1
 775 1218 l 1,6,-1
 775 0 l 1,7,-1
 479 0 l 1,0,-1
EndSplineSet
EndChar

StartChar: U
Encoding: 85 85 52
Width: 1479
GlyphClass: 2
Flags: W
LayerCount: 2
Fore
SplineSet
147 1466 m 1,0,-1
 443 1466 l 1,1,-1
 443 672 l 2,2,3
 443 483 443 483 454 427 c 0,4,5
 473 337 473 337 544.5 282.5 c 128,-1,6
 616 228 616 228 740 228 c 0,7,8
 866 228 866 228 930 279.5 c 128,-1,9
 994 331 994 331 1007 406 c 128,-1,10
 1020 481 1020 481 1020 655 c 2,11,-1
 1020 1466 l 1,12,-1
 1316 1466 l 1,13,-1
 1316 696 l 2,14,15
 1316 432 1316 432 1292 323 c 128,-1,16
 1268 214 1268 214 1203.5 139 c 128,-1,17
 1139 64 1139 64 1031 19.5 c 128,-1,18
 923 -25 923 -25 749 -25 c 0,19,20
 539 -25 539 -25 430.5 23.5 c 128,-1,21
 322 72 322 72 259 149.5 c 128,-1,22
 196 227 196 227 176 312 c 0,23,24
 147 438 147 438 147 684 c 2,25,-1
 147 1466 l 1,0,-1
EndSplineSet
EndChar

StartChar: V
Encoding: 86 86 53
Width: 1366
GlyphClass: 2
Flags: W
LayerCount: 2
Fore
SplineSet
523 0 m 1,0,-1
 -1 1466 l 1,1,-1
 320 1466 l 1,2,-1
 691 381 l 1,3,-1
 1050 1466 l 1,4,-1
 1364 1466 l 1,5,-1
 839 0 l 1,6,-1
 523 0 l 1,0,-1
EndSplineSet
EndChar

StartChar: W
Encoding: 87 87 54
Width: 1933
GlyphClass: 2
Flags: W
LayerCount: 2
Fore
SplineSet
357 0 m 1,0,-1
 7 1466 l 1,1,-1
 310 1466 l 1,2,-1
 531 459 l 1,3,-1
 799 1466 l 1,4,-1
 1151 1466 l 1,5,-1
 1408 442 l 1,6,-1
 1633 1466 l 1,7,-1
 1931 1466 l 1,8,-1
 1575 0 l 1,9,-1
 1261 0 l 1,10,-1
 969 1096 l 1,11,-1
 678 0 l 1,12,-1
 357 0 l 1,0,-1
EndSplineSet
EndChar

StartChar: X
Encoding: 88 88 55
Width: 1366
GlyphClass: 2
Flags: W
LayerCount: 2
Fore
SplineSet
0 0 m 1,0,-1
 501 765 l 1,1,-1
 47 1466 l 1,2,-1
 393 1466 l 1,3,-1
 687 995 l 1,4,-1
 975 1466 l 1,5,-1
 1318 1466 l 1,6,-1
 862 754 l 1,7,-1
 1363 0 l 1,8,-1
 1006 0 l 1,9,-1
 681 507 l 1,10,-1
 355 0 l 1,11,-1
 0 0 l 1,0,-1
EndSplineSet
EndChar

StartChar: Y
Encoding: 89 89 56
Width: 1366
GlyphClass: 2
Flags: W
LayerCount: 2
Fore
SplineSet
534 0 m 1,0,-1
 534 617 l 1,1,-1
 -3 1466 l 1,2,-1
 344 1466 l 1,3,-1
 689 886 l 1,4,-1
 1027 1466 l 1,5,-1
 1368 1466 l 1,6,-1
 829 615 l 1,7,-1
 829 0 l 1,8,-1
 534 0 l 1,0,-1
EndSplineSet
EndChar

StartChar: Z
Encoding: 90 90 57
Width: 1251
GlyphClass: 2
Flags: W
LayerCount: 2
Fore
SplineSet
22 0 m 1,0,-1
 22 267 l 1,1,-1
 792 1218 l 1,2,-1
 109 1218 l 1,3,-1
 109 1466 l 1,4,-1
 1182 1466 l 1,5,-1
 1182 1236 l 1,6,-1
 379 247 l 1,7,-1
 1213 247 l 1,8,-1
 1213 0 l 1,9,-1
 22 0 l 1,0,-1
EndSplineSet
EndChar

StartChar: bracketleft
Encoding: 91 91 58
Width: 1597
GlyphClass: 2
Flags: W
LayerCount: 2
Fore
SplineSet
1556.10058594 833.700195312 m 0,0,1
 1556.10058594 417.900390625 1556.10058594 417.900390625 1275.29980469 62.400390625 c 1,2,-1
 1209.60058594 113.700195312 l 1,3,4
 1473.29980469 439.5 1473.29980469 439.5 1473.29980469 833.700195312 c 0,5,6
 1473.29980469 1219.79980469 1473.29980469 1219.79980469 1210.5 1552.79980469 c 1,7,-1
 1276.20019531 1604.09960938 l 1,8,9
 1556.10058594 1248.59960938 1556.10058594 1248.59960938 1556.10058594 833.700195312 c 0,0,1
1358.10058594 833.700195312 m 0,10,11
 1358.10058594 489 1358.10058594 489 1125.90039062 185.700195312 c 1,12,-1
 1060.20019531 235.200195312 l 1,13,14
 1275.29980469 516 1275.29980469 516 1275.29980469 833.700195312 c 0,15,16
 1275.29980469 1150.5 1275.29980469 1150.5 1060.20019531 1431.29980469 c 1,17,-1
 1125.90039062 1480.79980469 l 1,18,19
 1358.10058594 1183.79980469 1358.10058594 1183.79980469 1358.10058594 833.700195312 c 0,10,11
1160.10058594 833.700195312 m 128,-1,21
 1160.10058594 561 1160.10058594 561 975.600585938 309 c 1,22,-1
 909 357.599609375 l 1,23,24
 1077.29980469 582.599609375 1077.29980469 582.599609375 1077.29980469 833.700195312 c 0,25,26
 1077.29980469 1080.29980469 1077.29980469 1080.29980469 909 1309.79980469 c 1,27,-1
 975.600585938 1358.40039062 l 1,28,20
 1160.10058594 1106.40039062 1160.10058594 1106.40039062 1160.10058594 833.700195312 c 128,-1,21
720 178.5 m 1,29,-1
 296.100585938 570 l 1,30,-1
 28.7998046875 570 l 1,31,-1
 28.7998046875 1097.40039062 l 1,32,-1
 297 1097.40039062 l 1,33,-1
 720 1488 l 1,34,-1
 720 178.5 l 1,29,-1
EndSplineSet
EndChar

StartChar: backslash
Encoding: 92 92 59
Width: 1836
GlyphClass: 2
Flags: W
LayerCount: 2
Fore
SplineSet
885 1546 m 5,0,-1
 962 1546 l 5,1,-1
 968 1540 l 5,2,-1
 968 1190 l 5,3,-1
 962 1184 l 5,4,-1
 885 1184 l 5,5,-1
 879 1190 l 5,6,-1
 879 1540 l 5,7,-1
 885 1546 l 5,0,-1
1446 1385 m 5,8,-1
 1504 1322 l 5,9,-1
 1504 1319 l 5,10,-1
 1256 1065 l 5,11,-1
 1195 1128 l 5,12,-1
 1446 1385 l 5,8,-1
424 1366 m 5,13,-1
 676 1112 l 5,14,-1
 615 1048 l 5,15,-1
 612 1048 l 5,16,17
 412 1247 412 1247 367 1302 c 5,18,-1
 367 1306 l 5,19,-1
 424 1366 l 5,13,-1
927 1125 m 4,20,21
 1135 1125 1135 1125 1224 900 c 5,22,-1
 1237 804 l 5,23,24
 1237 615 1237 615 1047 515 c 5,25,26
 976 492 976 492 930 492 c 4,27,28
 755 492 755 492 657 659 c 4,29,30
 622 722 622 722 622 814 c 4,31,32
 622 995 622 995 805 1098 c 5,33,34
 872 1125 872 1125 927 1125 c 4,20,21
179 850 m 5,35,-1
 518 850 l 5,36,-1
 524 844 l 5,37,-1
 524 765 l 5,38,-1
 518 759 l 5,39,-1
 179 759 l 5,40,-1
 173 765 l 5,41,-1
 173 844 l 5,42,-1
 179 850 l 5,35,-1
1314 850 m 5,43,-1
 1659 850 l 5,44,-1
 1666 844 l 5,45,-1
 1666 765 l 5,46,-1
 1659 759 l 5,47,-1
 1314 759 l 5,48,-1
 1308 765 l 5,49,-1
 1308 844 l 5,50,-1
 1314 850 l 5,43,-1
1237 564 m 5,51,-1
 1240 564 l 5,52,53
 1374 434 1374 434 1488 313 c 5,54,-1
 1488 310 l 5,55,-1
 1427 248 l 5,56,-1
 1179 501 l 5,57,-1
 1179 505 l 5,58,-1
 1237 564 l 5,51,-1
592 547 m 5,59,-1
 595 547 l 5,60,-1
 654 487 l 5,61,-1
 654 484 l 5,62,-1
 408 230 l 5,63,-1
 346 293 l 5,64,-1
 346 297 l 5,65,-1
 592 547 l 5,59,-1
885 415 m 5,66,-1
 962 415 l 5,67,-1
 968 409 l 5,68,-1
 968 59 l 5,69,-1
 962 53 l 5,70,-1
 885 53 l 5,71,-1
 879 59 l 5,72,-1
 879 409 l 5,73,-1
 885 415 l 5,66,-1
EndSplineSet
EndChar

StartChar: bracketright
Encoding: 93 93 60
Width: 1716
GlyphClass: 2
Flags: W
LayerCount: 2
Fore
SplineSet
453 654 m 0,0,1
 492 654 492 654 512 590 c 0,2,3
 552 470 552 470 569 470 c 0,4,5
 582 470 582 470 596 490 c 0,6,7
 877 940 877 940 1116 1218 c 0,8,9
 1178 1290 1178 1290 1313 1290 c 0,10,11
 1345 1290 1345 1290 1356 1284 c 128,-1,12
 1367 1278 1367 1278 1367 1269 c 0,13,14
 1367 1255 1367 1255 1334 1214 c 0,15,16
 948 750 948 750 618 234 c 0,17,18
 595 198 595 198 524 198 c 0,19,20
 452 198 452 198 439 204 c 0,21,22
 405 219 405 219 359 357 c 0,23,24
 307 510 307 510 307 549 c 0,25,26
 307 591 307 591 377 630 c 0,27,28
 420 654 420 654 453 654 c 0,0,1
EndSplineSet
EndChar

StartChar: asciicircum
Encoding: 94 94 61
Width: 1716
GlyphClass: 2
Flags: W
LayerCount: 2
Fore
SplineSet
999 746 m 1,0,-1
 1456 289 l 1,1,-1
 1314 148 l 1,2,-1
 858 605 l 1,3,-1
 401 148 l 1,4,-1
 259 289 l 1,5,-1
 716 746 l 1,6,-1
 259 1203 l 1,7,-1
 401 1344 l 1,8,-1
 858 888 l 1,9,-1
 1315 1345 l 1,10,-1
 1457 1204 l 1,11,-1
 999 746 l 1,0,-1
EndSplineSet
EndChar

StartChar: underscore
Encoding: 95 95 62
Width: 1900
GlyphClass: 2
Flags: W
LayerCount: 2
Fore
SplineSet
691 864 m 1,0,-1
 518 864 l 2,1,2
 375 864 375 864 274 965 c 128,-1,3
 173 1066 173 1066 173 1209 c 128,-1,4
 173 1352 173 1352 274 1453 c 128,-1,5
 375 1554 375 1554 518 1554 c 128,-1,6
 661 1554 661 1554 762.5 1453 c 128,-1,7
 864 1352 864 1352 864 1209 c 2,8,-1
 864 1036 l 1,9,-1
 1037 1036 l 1,10,-1
 1037 1209 l 2,11,12
 1037 1352 1037 1352 1138 1453 c 128,-1,13
 1239 1554 1239 1554 1382 1554 c 128,-1,14
 1525 1554 1525 1554 1626 1453 c 128,-1,15
 1727 1352 1727 1352 1727 1209 c 128,-1,16
 1727 1066 1727 1066 1626 965 c 128,-1,17
 1525 864 1525 864 1382 864 c 2,18,-1
 1209 864 l 1,19,-1
 1209 691 l 1,20,-1
 1382 691 l 2,21,22
 1525 691 1525 691 1626 589.5 c 128,-1,23
 1727 488 1727 488 1727 345 c 128,-1,24
 1727 202 1727 202 1626 101 c 128,-1,25
 1525 0 1525 0 1382 0 c 128,-1,26
 1239 0 1239 0 1138 101 c 128,-1,27
 1037 202 1037 202 1037 345 c 2,28,-1
 1037 518 l 1,29,-1
 864 518 l 1,30,-1
 864 345 l 2,31,32
 864 202 864 202 762.5 101 c 128,-1,33
 661 0 661 0 518 0 c 128,-1,34
 375 0 375 0 274 101 c 128,-1,35
 173 202 173 202 173 345 c 128,-1,36
 173 488 173 488 274 589.5 c 128,-1,37
 375 691 375 691 518 691 c 2,38,-1
 691 691 l 1,39,-1
 691 864 l 1,0,-1
864 691 m 1,40,-1
 1037 691 l 1,41,-1
 1037 864 l 1,42,-1
 864 864 l 1,43,-1
 864 691 l 1,40,-1
691 1036 m 1,44,-1
 691 1209 l 2,45,46
 691 1280 691 1280 640.5 1331 c 128,-1,47
 590 1382 590 1382 518 1382 c 0,48,49
 447 1382 447 1382 396.5 1331 c 128,-1,50
 346 1280 346 1280 346 1209 c 0,51,52
 346 1137 346 1137 396.5 1086.5 c 128,-1,53
 447 1036 447 1036 518 1036 c 2,54,-1
 691 1036 l 1,44,-1
1209 1036 m 1,55,-1
 1382 1036 l 2,56,57
 1454 1036 1454 1036 1504.5 1087 c 128,-1,58
 1555 1138 1555 1138 1555 1209 c 128,-1,59
 1555 1280 1555 1280 1504 1331 c 128,-1,60
 1453 1382 1453 1382 1382 1382 c 0,61,62
 1310 1382 1310 1382 1259.5 1331 c 128,-1,63
 1209 1280 1209 1280 1209 1209 c 2,64,-1
 1209 1036 l 1,55,-1
1209 518 m 1,65,-1
 1209 345 l 2,66,67
 1209 274 1209 274 1260 223.5 c 128,-1,68
 1311 173 1311 173 1382 173 c 0,69,70
 1454 173 1454 173 1504.5 223.5 c 128,-1,71
 1555 274 1555 274 1555 346 c 0,72,73
 1555 417 1555 417 1504 467.5 c 128,-1,74
 1453 518 1453 518 1382 518 c 2,75,-1
 1209 518 l 1,65,-1
691 518 m 1,76,-1
 518 518 l 2,77,78
 447 518 447 518 396.5 467.5 c 128,-1,79
 346 417 346 417 346 345 c 0,80,81
 346 274 346 274 396.5 223.5 c 128,-1,82
 447 173 447 173 518 173 c 0,83,84
 590 173 590 173 640.5 223.5 c 128,-1,85
 691 274 691 274 691 345 c 2,86,-1
 691 518 l 1,76,-1
EndSplineSet
EndChar

StartChar: grave
Encoding: 96 96 63
Width: 682
GlyphClass: 2
Flags: W
LayerCount: 2
Fore
SplineSet
495 1192 m 1,0,-1
 318 1192 l 1,1,-1
 42 1491 l 1,2,-1
 357 1491 l 1,3,-1
 495 1192 l 1,0,-1
EndSplineSet
EndChar

StartChar: a
Encoding: 97 97 64
Width: 1139
GlyphClass: 2
Flags: W
LayerCount: 2
Fore
SplineSet
357 738 m 1,0,-1
 102 784 l 1,1,2
 145 938 145 938 250 1012 c 128,-1,3
 355 1086 355 1086 562 1086 c 0,4,5
 750 1086 750 1086 842 1041.5 c 128,-1,6
 934 997 934 997 971.5 928.5 c 128,-1,7
 1009 860 1009 860 1009 677 c 2,8,-1
 1006 349 l 2,9,10
 1006 209 1006 209 1019.5 142.5 c 128,-1,11
 1033 76 1033 76 1070 0 c 1,12,-1
 792 0 l 1,13,14
 781 28 781 28 765 83 c 0,15,16
 758 108 758 108 755 116 c 1,17,18
 683 46 683 46 601 11 c 128,-1,19
 519 -24 519 -24 426 -24 c 0,20,21
 262 -24 262 -24 167.5 65 c 128,-1,22
 73 154 73 154 73 290 c 0,23,24
 73 380 73 380 116 450.5 c 128,-1,25
 159 521 159 521 236.5 558.5 c 128,-1,26
 314 596 314 596 460 624 c 0,27,28
 657 661 657 661 733 693 c 1,29,-1
 733 721 l 2,30,31
 733 802 733 802 693 836.5 c 128,-1,32
 653 871 653 871 542 871 c 0,33,34
 467 871 467 871 425 841.5 c 128,-1,35
 383 812 383 812 357 738 c 1,0,-1
733 510 m 1,36,37
 679 492 679 492 562 467 c 128,-1,38
 445 442 445 442 409 418 c 0,39,40
 354 379 354 379 354 319 c 0,41,42
 354 260 354 260 398 217 c 128,-1,43
 442 174 442 174 510 174 c 0,44,45
 586 174 586 174 655 224 c 0,46,47
 706 262 706 262 722 317 c 0,48,49
 733 353 733 353 733 454 c 2,50,-1
 733 510 l 1,36,37
EndSplineSet
EndChar

StartChar: b
Encoding: 98 98 65
Width: 1251
GlyphClass: 2
Flags: W
LayerCount: 2
Fore
SplineSet
135 0 m 1,0,-1
 135 1466 l 1,1,-1
 416 1466 l 1,2,-1
 416 938 l 1,3,4
 546 1086 546 1086 724 1086 c 0,5,6
 918 1086 918 1086 1045 945.5 c 128,-1,7
 1172 805 1172 805 1172 542 c 0,8,9
 1172 270 1172 270 1042.5 123 c 128,-1,10
 913 -24 913 -24 728 -24 c 0,11,12
 637 -24 637 -24 548.5 21.5 c 128,-1,13
 460 67 460 67 396 156 c 1,14,-1
 396 0 l 1,15,-1
 135 0 l 1,0,-1
414 554 m 0,16,17
 414 389 414 389 466 310 c 0,18,19
 539 198 539 198 660 198 c 0,20,21
 753 198 753 198 818.5 277.5 c 128,-1,22
 884 357 884 357 884 528 c 0,23,24
 884 710 884 710 818 790.5 c 128,-1,25
 752 871 752 871 649 871 c 0,26,27
 548 871 548 871 481 792.5 c 128,-1,28
 414 714 414 714 414 554 c 0,16,17
EndSplineSet
EndChar

StartChar: c
Encoding: 99 99 66
Width: 1139
GlyphClass: 2
Flags: W
LayerCount: 2
Fore
SplineSet
1073 748 m 1,0,-1
 796 698 l 1,1,2
 782 781 782 781 732.5 823 c 128,-1,3
 683 865 683 865 604 865 c 0,4,5
 499 865 499 865 436.5 792.5 c 128,-1,6
 374 720 374 720 374 550 c 0,7,8
 374 361 374 361 437.5 283 c 128,-1,9
 501 205 501 205 608 205 c 0,10,11
 688 205 688 205 739 250.5 c 128,-1,12
 790 296 790 296 811 407 c 1,13,-1
 1087 360 l 1,14,15
 1044 170 1044 170 922 73 c 128,-1,16
 800 -24 800 -24 595 -24 c 0,17,18
 362 -24 362 -24 223.5 123 c 128,-1,19
 85 270 85 270 85 530 c 0,20,21
 85 793 85 793 224 939.5 c 128,-1,22
 363 1086 363 1086 600 1086 c 0,23,24
 794 1086 794 1086 908.5 1002.5 c 128,-1,25
 1023 919 1023 919 1073 748 c 1,0,-1
EndSplineSet
EndChar

StartChar: d
Encoding: 100 100 67
Width: 1251
GlyphClass: 2
Flags: W
LayerCount: 2
Fore
SplineSet
1121 0 m 1,0,-1
 860 0 l 1,1,-1
 860 156 l 1,2,3
 795 65 795 65 706.5 20.5 c 128,-1,4
 618 -24 618 -24 528 -24 c 0,5,6
 345 -24 345 -24 214.5 123.5 c 128,-1,7
 84 271 84 271 84 535 c 0,8,9
 84 805 84 805 211 945.5 c 128,-1,10
 338 1086 338 1086 532 1086 c 0,11,12
 710 1086 710 1086 840 938 c 1,13,-1
 840 1466 l 1,14,-1
 1121 1466 l 1,15,-1
 1121 0 l 1,0,-1
371 554 m 0,16,17
 371 384 371 384 418 308 c 0,18,19
 486 198 486 198 608 198 c 0,20,21
 705 198 705 198 773 280.5 c 128,-1,22
 841 363 841 363 841 527 c 0,23,24
 841 710 841 710 775 790.5 c 128,-1,25
 709 871 709 871 606 871 c 0,26,27
 506 871 506 871 438.5 791.5 c 128,-1,28
 371 712 371 712 371 554 c 0,16,17
EndSplineSet
EndChar

StartChar: e
Encoding: 101 101 68
Width: 1139
GlyphClass: 2
Flags: W
LayerCount: 2
Fore
SplineSet
762 338 m 1,0,-1
 1042 291 l 1,1,2
 988 137 988 137 871.5 56.5 c 128,-1,3
 755 -24 755 -24 580 -24 c 0,4,5
 303 -24 303 -24 170 157 c 0,6,7
 65 302 65 302 65 523 c 0,8,9
 65 787 65 787 203 936.5 c 128,-1,10
 341 1086 341 1086 552 1086 c 0,11,12
 789 1086 789 1086 926 929.5 c 128,-1,13
 1063 773 1063 773 1057 450 c 1,14,-1
 353 450 l 1,15,16
 356 325 356 325 421 255.5 c 128,-1,17
 486 186 486 186 583 186 c 0,18,19
 649 186 649 186 694 222 c 128,-1,20
 739 258 739 258 762 338 c 1,0,-1
778 622 m 1,21,22
 775 744 775 744 715 807.5 c 128,-1,23
 655 871 655 871 569 871 c 0,24,25
 477 871 477 871 417 804 c 256,26,27
 357 737 357 737 358 622 c 1,28,-1
 778 622 l 1,21,22
EndSplineSet
EndChar

StartChar: f
Encoding: 102 102 69
Width: 682
GlyphClass: 2
Flags: W
LayerCount: 2
Fore
SplineSet
24 1062 m 1,0,-1
 180 1062 l 1,1,-1
 180 1142 l 2,2,3
 180 1276 180 1276 208.5 1342 c 128,-1,4
 237 1408 237 1408 313.5 1449.5 c 128,-1,5
 390 1491 390 1491 507 1491 c 0,6,7
 627 1491 627 1491 742 1455 c 1,8,-1
 704 1259 l 1,9,10
 637 1275 637 1275 575 1275 c 0,11,12
 514 1275 514 1275 487.5 1246.5 c 128,-1,13
 461 1218 461 1218 461 1137 c 2,14,-1
 461 1062 l 1,15,-1
 671 1062 l 1,16,-1
 671 841 l 1,17,-1
 461 841 l 1,18,-1
 461 0 l 1,19,-1
 180 0 l 1,20,-1
 180 841 l 1,21,-1
 24 841 l 1,22,-1
 24 1062 l 1,0,-1
EndSplineSet
EndChar

StartChar: g
Encoding: 103 103 70
Width: 1251
GlyphClass: 2
Flags: W
LayerCount: 2
Fore
SplineSet
121 -70 m 1,0,-1
 442 -109 l 1,1,2
 450 -165 450 -165 479 -186 c 0,3,4
 519 -216 519 -216 605 -216 c 0,5,6
 715 -216 715 -216 770 -183 c 0,7,8
 807 -161 807 -161 826 -112 c 0,9,10
 839 -77 839 -77 839 17 c 2,11,-1
 839 172 l 1,12,13
 713 0 713 0 521 0 c 0,14,15
 307 0 307 0 182 181 c 0,16,17
 84 324 84 324 84 537 c 0,18,19
 84 804 84 804 212.5 945 c 128,-1,20
 341 1086 341 1086 532 1086 c 0,21,22
 729 1086 729 1086 857 913 c 1,23,-1
 857 1062 l 1,24,-1
 1120 1062 l 1,25,-1
 1120 109 l 2,26,27
 1120 -79 1120 -79 1089 -172 c 128,-1,28
 1058 -265 1058 -265 1002 -318 c 128,-1,29
 946 -371 946 -371 852.5 -401 c 128,-1,30
 759 -431 759 -431 616 -431 c 0,31,32
 346 -431 346 -431 233 -338.5 c 128,-1,33
 120 -246 120 -246 120 -104 c 0,34,35
 120 -90 120 -90 121 -70 c 1,0,-1
372 553 m 0,36,37
 372 384 372 384 437.5 305.5 c 128,-1,38
 503 227 503 227 599 227 c 0,39,40
 702 227 702 227 773 307.5 c 128,-1,41
 844 388 844 388 844 546 c 0,42,43
 844 711 844 711 776 791 c 128,-1,44
 708 871 708 871 604 871 c 0,45,46
 503 871 503 871 437.5 792.5 c 128,-1,47
 372 714 372 714 372 553 c 0,36,37
EndSplineSet
EndChar

StartChar: h
Encoding: 104 104 71
Width: 1251
GlyphClass: 2
Flags: W
LayerCount: 2
Fore
SplineSet
427 1466 m 1,0,-1
 427 927 l 1,1,2
 563 1086 563 1086 752 1086 c 0,3,4
 849 1086 849 1086 927 1050 c 128,-1,5
 1005 1014 1005 1014 1044.5 958 c 128,-1,6
 1084 902 1084 902 1098.5 834 c 128,-1,7
 1113 766 1113 766 1113 623 c 2,8,-1
 1113 0 l 1,9,-1
 832 0 l 1,10,-1
 832 561 l 2,11,12
 832 728 832 728 816 773 c 128,-1,13
 800 818 800 818 759.5 844.5 c 128,-1,14
 719 871 719 871 658 871 c 0,15,16
 588 871 588 871 533 837 c 128,-1,17
 478 803 478 803 452.5 734.5 c 128,-1,18
 427 666 427 666 427 532 c 2,19,-1
 427 0 l 1,20,-1
 146 0 l 1,21,-1
 146 1466 l 1,22,-1
 427 1466 l 1,0,-1
EndSplineSet
EndChar

StartChar: i
Encoding: 105 105 72
Width: 569
GlyphClass: 2
Flags: W
LayerCount: 2
Fore
SplineSet
147 1206 m 1,0,-1
 147 1466 l 1,1,-1
 428 1466 l 1,2,-1
 428 1206 l 1,3,-1
 147 1206 l 1,0,-1
147 0 m 1,4,-1
 147 1062 l 1,5,-1
 428 1062 l 1,6,-1
 428 0 l 1,7,-1
 147 0 l 1,4,-1
EndSplineSet
EndChar

StartChar: j
Encoding: 106 106 73
Width: 569
GlyphClass: 2
Flags: W
LayerCount: 2
Fore
SplineSet
141 1206 m 1,0,-1
 141 1466 l 1,1,-1
 422 1466 l 1,2,-1
 422 1206 l 1,3,-1
 141 1206 l 1,0,-1
422 1062 m 1,4,-1
 422 33 l 2,5,6
 422 -170 422 -170 395.5 -253.5 c 128,-1,7
 369 -337 369 -337 293.5 -384 c 128,-1,8
 218 -431 218 -431 101 -431 c 0,9,10
 59 -431 59 -431 10.5 -423.5 c 128,-1,11
 -38 -416 -38 -416 -94 -401 c 1,12,-1
 -45 -161 l 1,13,14
 -25 -165 -25 -165 -7.5 -167.5 c 128,-1,15
 10 -170 10 -170 25 -170 c 0,16,17
 68 -170 68 -170 95.5 -151.5 c 128,-1,18
 123 -133 123 -133 132 -107 c 128,-1,19
 141 -81 141 -81 141 49 c 2,20,-1
 141 1062 l 1,21,-1
 422 1062 l 1,4,-1
EndSplineSet
EndChar

StartChar: k
Encoding: 107 107 74
Width: 1139
GlyphClass: 2
Flags: W
LayerCount: 2
Fore
SplineSet
137 0 m 1,0,-1
 137 1466 l 1,1,-1
 418 1466 l 1,2,-1
 418 688 l 1,3,-1
 747 1062 l 1,4,-1
 1093 1062 l 1,5,-1
 730 674 l 1,6,-1
 1119 0 l 1,7,-1
 816 0 l 1,8,-1
 549 477 l 1,9,-1
 418 340 l 1,10,-1
 418 0 l 1,11,-1
 137 0 l 1,0,-1
EndSplineSet
EndChar

StartChar: l
Encoding: 108 108 75
Width: 569
GlyphClass: 2
Flags: W
LayerCount: 2
Fore
SplineSet
147 0 m 1,0,-1
 147 1466 l 1,1,-1
 428 1466 l 1,2,-1
 428 0 l 1,3,-1
 147 0 l 1,0,-1
EndSplineSet
EndChar

StartChar: m
Encoding: 109 109 76
Width: 1821
GlyphClass: 2
Flags: W
LayerCount: 2
Fore
SplineSet
126 1062 m 1,0,-1
 385 1062 l 1,1,-1
 385 917 l 1,2,3
 524 1086 524 1086 716 1086 c 0,4,5
 818 1086 818 1086 893 1044 c 128,-1,6
 968 1002 968 1002 1016 917 c 1,7,8
 1086 1002 1086 1002 1167 1044 c 128,-1,9
 1248 1086 1248 1086 1340 1086 c 0,10,11
 1457 1086 1457 1086 1538 1038.5 c 128,-1,12
 1619 991 1619 991 1659 899 c 0,13,14
 1688 831 1688 831 1688 679 c 2,15,-1
 1688 0 l 1,16,-1
 1407 0 l 1,17,-1
 1407 607 l 2,18,19
 1407 765 1407 765 1378 811 c 0,20,21
 1339 871 1339 871 1258 871 c 0,22,23
 1199 871 1199 871 1147 835 c 128,-1,24
 1095 799 1095 799 1072 729.5 c 128,-1,25
 1049 660 1049 660 1049 510 c 2,26,-1
 1049 0 l 1,27,-1
 768 0 l 1,28,-1
 768 582 l 2,29,30
 768 737 768 737 753 782 c 128,-1,31
 738 827 738 827 706.5 849 c 128,-1,32
 675 871 675 871 621 871 c 0,33,34
 556 871 556 871 504 836 c 128,-1,35
 452 801 452 801 429.5 735 c 128,-1,36
 407 669 407 669 407 516 c 2,37,-1
 407 0 l 1,38,-1
 126 0 l 1,39,-1
 126 1062 l 1,0,-1
EndSplineSet
EndChar

StartChar: n
Encoding: 110 110 77
Width: 1251
GlyphClass: 2
Flags: W
LayerCount: 2
Fore
SplineSet
1113 0 m 1,0,-1
 832 0 l 1,1,-1
 832 542 l 2,2,3
 832 714 832 714 814 764.5 c 128,-1,4
 796 815 796 815 755.5 843 c 128,-1,5
 715 871 715 871 658 871 c 0,6,7
 585 871 585 871 527 831 c 128,-1,8
 469 791 469 791 447.5 725 c 128,-1,9
 426 659 426 659 426 481 c 2,10,-1
 426 0 l 1,11,-1
 145 0 l 1,12,-1
 145 1062 l 1,13,-1
 406 1062 l 1,14,-1
 406 906 l 1,15,16
 545 1086 545 1086 756 1086 c 0,17,18
 849 1086 849 1086 926 1052.5 c 128,-1,19
 1003 1019 1003 1019 1042.5 967 c 128,-1,20
 1082 915 1082 915 1097.5 849 c 128,-1,21
 1113 783 1113 783 1113 660 c 2,22,-1
 1113 0 l 1,0,-1
EndSplineSet
EndChar

StartChar: o
Encoding: 111 111 78
Width: 1251
GlyphClass: 2
Flags: W
LayerCount: 2
Fore
SplineSet
82 546 m 0,0,1
 82 686 82 686 151 817 c 128,-1,2
 220 948 220 948 346.5 1017 c 128,-1,3
 473 1086 473 1086 629 1086 c 0,4,5
 870 1086 870 1086 1024 929.5 c 128,-1,6
 1178 773 1178 773 1178 534 c 0,7,8
 1178 293 1178 293 1022.5 134.5 c 128,-1,9
 867 -24 867 -24 631 -24 c 0,10,11
 485 -24 485 -24 352.5 42 c 128,-1,12
 220 108 220 108 151 235.5 c 128,-1,13
 82 363 82 363 82 546 c 0,0,1
370 531 m 256,14,15
 370 373 370 373 445 289 c 128,-1,16
 520 205 520 205 630 205 c 256,17,18
 740 205 740 205 814.5 289 c 128,-1,19
 889 373 889 373 889 533 c 0,20,21
 889 689 889 689 814.5 773 c 128,-1,22
 740 857 740 857 630 857 c 256,23,24
 520 857 520 857 445 773 c 128,-1,25
 370 689 370 689 370 531 c 256,14,15
EndSplineSet
EndChar

StartChar: p
Encoding: 112 112 79
Width: 1251
GlyphClass: 2
Flags: W
LayerCount: 2
Fore
SplineSet
139 1062 m 1,0,-1
 401 1062 l 1,1,-1
 401 906 l 1,2,3
 452 986 452 986 539 1036 c 128,-1,4
 626 1086 626 1086 732 1086 c 0,5,6
 917 1086 917 1086 1046 941 c 128,-1,7
 1175 796 1175 796 1175 537 c 0,8,9
 1175 271 1175 271 1045 123.5 c 128,-1,10
 915 -24 915 -24 730 -24 c 0,11,12
 642 -24 642 -24 570.5 11 c 128,-1,13
 499 46 499 46 420 131 c 1,14,-1
 420 -404 l 1,15,-1
 139 -404 l 1,16,-1
 139 1062 l 1,0,-1
417 549 m 0,17,18
 417 370 417 370 488 284.5 c 128,-1,19
 559 199 559 199 661 199 c 0,20,21
 759 199 759 199 824 277.5 c 128,-1,22
 889 356 889 356 889 535 c 0,23,24
 889 702 889 702 822 783 c 128,-1,25
 755 864 755 864 656 864 c 0,26,27
 553 864 553 864 485 784.5 c 128,-1,28
 417 705 417 705 417 549 c 0,17,18
EndSplineSet
EndChar

StartChar: q
Encoding: 113 113 80
Width: 1251
GlyphClass: 2
Flags: W
LayerCount: 2
Fore
SplineSet
841 -404 m 1,0,-1
 841 130 l 1,1,2
 786 59 786 59 704 17.5 c 128,-1,3
 622 -24 622 -24 527 -24 c 0,4,5
 346 -24 346 -24 229 112 c 0,6,7
 91 271 91 271 91 543 c 0,8,9
 91 799 91 799 220.5 942.5 c 128,-1,10
 350 1086 350 1086 542 1086 c 0,11,12
 648 1086 648 1086 725.5 1041 c 128,-1,13
 803 996 803 996 863 905 c 1,14,-1
 863 1062 l 1,15,-1
 1122 1062 l 1,16,-1
 1122 -404 l 1,17,-1
 841 -404 l 1,0,-1
850 544 m 0,18,19
 850 707 850 707 783.5 786.5 c 128,-1,20
 717 866 717 866 617 866 c 0,21,22
 515 866 515 866 446.5 785 c 128,-1,23
 378 704 378 704 378 528 c 0,24,25
 378 353 378 353 444 275.5 c 128,-1,26
 510 198 510 198 607 198 c 256,27,28
 704 198 704 198 777 285 c 128,-1,29
 850 372 850 372 850 544 c 0,18,19
EndSplineSet
EndChar

StartChar: r
Encoding: 114 114 81
Width: 797
GlyphClass: 2
Flags: W
LayerCount: 2
Fore
SplineSet
416 0 m 1,0,-1
 135 0 l 1,1,-1
 135 1062 l 1,2,-1
 396 1062 l 1,3,-1
 396 911 l 1,4,5
 463 1018 463 1018 516.5 1052 c 128,-1,6
 570 1086 570 1086 638 1086 c 0,7,8
 734 1086 734 1086 823 1033 c 1,9,-1
 736 788 l 1,10,11
 665 834 665 834 604 834 c 0,12,13
 545 834 545 834 504 801.5 c 128,-1,14
 463 769 463 769 439.5 684 c 128,-1,15
 416 599 416 599 416 328 c 2,16,-1
 416 0 l 1,0,-1
EndSplineSet
EndChar

StartChar: s
Encoding: 115 115 82
Width: 1139
GlyphClass: 2
Flags: W
LayerCount: 2
Fore
SplineSet
48 303 m 1,0,-1
 330 346 l 1,1,2
 348 264 348 264 403 221.5 c 128,-1,3
 458 179 458 179 557 179 c 0,4,5
 666 179 666 179 721 219 c 0,6,7
 758 247 758 247 758 294 c 0,8,9
 758 326 758 326 738 347 c 0,10,11
 717 367 717 367 644 384 c 0,12,13
 304 459 304 459 213 521 c 0,14,15
 87 607 87 607 87 760 c 0,16,17
 87 898 87 898 196 992 c 128,-1,18
 305 1086 305 1086 534 1086 c 0,19,20
 752 1086 752 1086 858 1015 c 128,-1,21
 964 944 964 944 1004 805 c 1,22,-1
 739 756 l 1,23,24
 722 818 722 818 674.5 851 c 128,-1,25
 627 884 627 884 539 884 c 0,26,27
 428 884 428 884 380 853 c 0,28,29
 348 831 348 831 348 796 c 0,30,31
 348 766 348 766 376 745 c 0,32,33
 414 717 414 717 638.5 666 c 128,-1,34
 863 615 863 615 952 541 c 0,35,36
 1040 466 1040 466 1040 332 c 0,37,38
 1040 186 1040 186 918 81 c 128,-1,39
 796 -24 796 -24 557 -24 c 0,40,41
 340 -24 340 -24 213.5 64 c 128,-1,42
 87 152 87 152 48 303 c 1,0,-1
EndSplineSet
EndChar

StartChar: t
Encoding: 116 116 83
Width: 682
GlyphClass: 2
Flags: W
LayerCount: 2
Fore
SplineSet
634 1062 m 1,0,-1
 634 838 l 1,1,-1
 442 838 l 1,2,-1
 442 410 l 2,3,4
 442 280 442 280 447.5 258.5 c 128,-1,5
 453 237 453 237 472.5 223 c 128,-1,6
 492 209 492 209 520 209 c 0,7,8
 559 209 559 209 633 236 c 1,9,-1
 657 18 l 1,10,11
 559 -24 559 -24 435 -24 c 0,12,13
 359 -24 359 -24 298 1.5 c 128,-1,14
 237 27 237 27 208.5 67.5 c 128,-1,15
 180 108 180 108 169 177 c 0,16,17
 160 226 160 226 160 375 c 2,18,-1
 160 838 l 1,19,-1
 31 838 l 1,20,-1
 31 1062 l 1,21,-1
 160 1062 l 1,22,-1
 160 1273 l 1,23,-1
 442 1437 l 1,24,-1
 442 1062 l 1,25,-1
 634 1062 l 1,0,-1
EndSplineSet
EndChar

StartChar: u
Encoding: 117 117 84
Width: 1251
GlyphClass: 2
Flags: W
LayerCount: 2
Fore
SplineSet
846 0 m 1,0,-1
 846 159 l 1,1,2
 788 74 788 74 693.5 25 c 128,-1,3
 599 -24 599 -24 494 -24 c 0,4,5
 387 -24 387 -24 302 23 c 128,-1,6
 217 70 217 70 179 155 c 128,-1,7
 141 240 141 240 141 390 c 2,8,-1
 141 1062 l 1,9,-1
 422 1062 l 1,10,-1
 422 574 l 2,11,12
 422 350 422 350 437.5 299.5 c 128,-1,13
 453 249 453 249 494 219.5 c 128,-1,14
 535 190 535 190 598 190 c 0,15,16
 670 190 670 190 727 229.5 c 128,-1,17
 784 269 784 269 805 327.5 c 128,-1,18
 826 386 826 386 826 614 c 2,19,-1
 826 1062 l 1,20,-1
 1107 1062 l 1,21,-1
 1107 0 l 1,22,-1
 846 0 l 1,0,-1
EndSplineSet
EndChar

StartChar: v
Encoding: 118 118 85
Width: 1139
GlyphClass: 2
Flags: W
LayerCount: 2
Fore
SplineSet
439 0 m 1,0,-1
 11 1062 l 1,1,-1
 306 1062 l 1,2,-1
 506 520 l 1,3,-1
 564 339 l 1,4,5
 587 408 587 408 593 430 c 0,6,7
 607 475 607 475 623 520 c 2,8,-1
 825 1062 l 1,9,-1
 1114 1062 l 1,10,-1
 692 0 l 1,11,-1
 439 0 l 1,0,-1
EndSplineSet
EndChar

StartChar: w
Encoding: 119 119 86
Width: 1593
GlyphClass: 2
Flags: W
LayerCount: 2
Fore
SplineSet
345 0 m 1,0,-1
 9 1062 l 1,1,-1
 282 1062 l 1,2,-1
 481 366 l 1,3,-1
 664 1062 l 1,4,-1
 935 1062 l 1,5,-1
 1112 366 l 1,6,-1
 1315 1062 l 1,7,-1
 1592 1062 l 1,8,-1
 1251 0 l 1,9,-1
 981 0 l 1,10,-1
 798 683 l 1,11,-1
 618 0 l 1,12,-1
 345 0 l 1,0,-1
EndSplineSet
EndChar

StartChar: x
Encoding: 120 120 87
Width: 1139
GlyphClass: 2
Flags: W
LayerCount: 2
Fore
SplineSet
12 0 m 1,0,-1
 395 547 l 1,1,-1
 28 1062 l 1,2,-1
 371 1062 l 1,3,-1
 559 770 l 1,4,-1
 757 1062 l 1,5,-1
 1087 1062 l 1,6,-1
 727 559 l 1,7,-1
 1120 0 l 1,8,-1
 775 0 l 1,9,-1
 559 329 l 1,10,-1
 341 0 l 1,11,-1
 12 0 l 1,0,-1
EndSplineSet
EndChar

StartChar: y
Encoding: 121 121 88
Width: 1139
GlyphClass: 2
Flags: W
LayerCount: 2
Fore
SplineSet
14 1062 m 1,0,-1
 313 1062 l 1,1,-1
 567 308 l 1,2,-1
 815 1062 l 1,3,-1
 1106 1062 l 1,4,-1
 731 40 l 1,5,-1
 664 -145 l 2,6,7
 627 -238 627 -238 593.5 -287 c 128,-1,8
 560 -336 560 -336 516.5 -366.5 c 128,-1,9
 473 -397 473 -397 409.5 -414 c 128,-1,10
 346 -431 346 -431 266 -431 c 0,11,12
 185 -431 185 -431 107 -414 c 1,13,-1
 82 -194 l 1,14,15
 148 -207 148 -207 201 -207 c 0,16,17
 299 -207 299 -207 346 -149.5 c 128,-1,18
 393 -92 393 -92 418 -3 c 1,19,-1
 14 1062 l 1,0,-1
EndSplineSet
EndChar

StartChar: z
Encoding: 122 122 89
Width: 1024
GlyphClass: 2
Flags: W
LayerCount: 2
Fore
SplineSet
34 0 m 1,0,-1
 34 219 l 1,1,-1
 432 676 l 2,2,3
 530 788 530 788 577 835 c 1,4,5
 528 832 528 832 448 831 c 2,6,-1
 73 829 l 1,7,-1
 73 1062 l 1,8,-1
 951 1062 l 1,9,-1
 951 863 l 1,10,-1
 545 395 l 1,11,-1
 402 240 l 1,12,13
 519 247 519 247 547 247 c 2,14,-1
 982 247 l 1,15,-1
 982 0 l 1,16,-1
 34 0 l 1,0,-1
EndSplineSet
EndChar

StartChar: braceleft
Encoding: 123 123 90
Width: 1836
GlyphClass: 2
Flags: W
LayerCount: 2
Fore
SplineSet
1080 401 m 1,0,1
 1148 441 1148 441 1187 516 c 128,-1,2
 1226 591 1226 591 1219 669 c 1,3,4
 1255 683 1255 683 1291 688 c 1,5,6
 1304 574 1304 574 1238 467.5 c 128,-1,7
 1172 361 1172 361 1087 324 c 1,8,9
 1071 362 1071 362 1080 401 c 1,0,1
1063 912 m 1,10,11
 994 950 994 950 910 946.5 c 128,-1,12
 826 943 826 943 764 900 c 1,13,14
 731 922 731 922 710 950 c 1,15,16
 803 1020 803 1020 928 1015.5 c 128,-1,17
 1053 1011 1053 1011 1127 956 c 1,18,19
 1102 923 1102 923 1063 912 c 1,10,11
630 645 m 1,20,21
 630 567 630 567 675.5 495.5 c 128,-1,22
 721 424 721 424 791 392 c 1,23,24
 788 354 788 354 772 320 c 1,25,26
 668 366 668 366 607.5 476.5 c 128,-1,27
 547 587 547 587 559 679 c 1,28,29
 601 673 601 673 630 645 c 1,20,21
1562 83 m 1,30,31
 1453 0 1453 0 1287 0 c 0,32,33
 1241 0 1241 0 1191 6 c 1,34,35
 1027 42 1027 42 935 212 c 1,36,-1
 934 210 l 1,37,38
 873 122 873 122 754 53 c 1,39,40
 662 6 662 6 566 6 c 0,41,42
 442 6 442 6 314 81 c 1,43,44
 457 14 457 14 587.5 60 c 128,-1,45
 718 106 718 106 776 203 c 1,46,47
 859 366 859 366 796 552 c 1,48,-1
 865 594 l 1,49,50
 933 546 933 546 991 593 c 1,51,-1
 1055 554 l 1,52,53
 991 382 991 382 1084 231 c 1,54,55
 1147 117 1147 117 1257 75.5 c 128,-1,56
 1367 34 1367 34 1562 83 c 1,30,31
1110 1496 m 1,57,58
 1272 1429 1272 1429 1365 1212 c 1,59,60
 1414 1053 1414 1053 1312 888 c 1,61,-1
 1316 888 l 1,62,63
 1421 878 1421 878 1541 811 c 1,64,65
 1736 681 1736 681 1736 424 c 2,66,-1
 1736 414 l 1,67,68
 1723 571 1723 571 1618 662 c 128,-1,69
 1513 753 1513 753 1401 753 c 1,70,71
 1218 743 1218 743 1088 596 c 1,72,-1
 1018 636 l 1,73,74
 1025 718 1025 718 955 745 c 1,75,-1
 955 820 l 1,76,77
 1137 851 1137 851 1221 1007 c 1,78,79
 1289 1119 1289 1119 1269.5 1235 c 128,-1,80
 1250 1351 1250 1351 1110 1496 c 1,57,58
104 397 m 1,81,82
 100 421 100 421 100 446 c 0,83,84
 100 595 100 595 221 756 c 1,85,86
 335 880 335 880 528 874 c 1,87,-1
 526 876 l 1,88,89
 482 974 482 974 480 1111 c 1,90,91
 497 1381 497 1381 773 1493 c 1,92,93
 596 1389 596 1389 570 1252.5 c 128,-1,94
 544 1116 544 1116 600 1017 c 1,95,96
 701 865 701 865 892 826 c 1,97,-1
 893 744 l 1,98,99
 817 710 817 710 829 636 c 1,100,-1
 765 600 l 1,101,102
 647 742 647 742 472 736 c 1,103,104
 339 738 339 738 249 663.5 c 128,-1,105
 159 589 159 589 104 397 c 1,81,82
EndSplineSet
EndChar

StartChar: bar
Encoding: 124 124 91
Width: 1954
GlyphClass: 2
Flags: W
LayerCount: 2
Fore
SplineSet
930 1629 m 4,0,1
 1382.41894531 1629 1382.41894531 1629 1694.26855469 1190.75585938 c 5,2,3
 1828.93164062 984.037109375 1828.93164062 984.037109375 1828.93164062 731.25 c 4,4,5
 1828.93164062 334.349609375 1828.93164062 334.349609375 1454.47558594 35.4931640625 c 5,6,7
 1225.3125 -138.150390625 1225.3125 -138.150390625 974.887695312 -138.150390625 c 6,8,-1
 937.087890625 -138.150390625 l 6,9,10
 488.212890625 -138.150390625 488.212890625 -138.150390625 178.725585938 318.993164062 c 5,11,12
 61.78125 524.53125 61.78125 524.53125 61.78125 734.793945312 c 6,13,-1
 61.78125 767.868164062 l 6,14,15
 61.78125 1168.3125 61.78125 1168.3125 461.043945312 1473.07519531 c 5,16,17
 679.575195312 1629 679.575195312 1629 930 1629 c 4,0,1
1319.8125 1425.82519531 m 4,18,19
 1123.72558594 1535.68066406 1123.72558594 1535.68066406 926.456054688 1535.68066406 c 4,20,21
 572.081054688 1535.68066406 572.081054688 1535.68066406 294.487304688 1187.21191406 c 5,22,23
 145.650390625 978.130859375 145.650390625 978.130859375 145.650390625 748.96875 c 4,24,25
 145.650390625 375.693359375 145.650390625 375.693359375 475.21875 108.731445312 c 5,26,27
 685.481445312 -54.28125 685.481445312 -54.28125 948.900390625 -54.28125 c 4,28,29
 1351.70605469 -54.28125 1351.70605469 -54.28125 1628.11914062 354.430664062 c 5,30,31
 1733.25 531.618164062 1733.25 531.618164062 1733.25 727.706054688 c 6,32,-1
 1733.25 745.424804688 l 6,33,34
 1732.06933594 1152.95605469 1732.06933594 1152.95605469 1331.625 1417.55566406 c 4,35,36
 1325.71875 1422.28125 1325.71875 1422.28125 1319.8125 1425.82519531 c 4,18,19
971.34375 -4.6689453125 m 6,37,-1
 938.268554688 -4.6689453125 l 6,38,39
 739.819335938 -4.6689453125 739.819335938 -4.6689453125 573.262695312 100.461914062 c 5,40,-1
 820.143554688 533.981445312 l 5,41,42
 876.84375 497.362304688 876.84375 497.362304688 942.994140625 497.362304688 c 6,43,-1
 952.444335938 497.362304688 l 6,44,45
 1011.50683594 497.362304688 1011.50683594 497.362304688 1065.84375 531.618164062 c 5,46,-1
 1316.26855469 99.28125 l 5,47,48
 1149.71289062 -4.6689453125 1149.71289062 -4.6689453125 971.34375 -4.6689453125 c 6,37,-1
809.512695312 949.78125 m 4,49,50
 697.293945312 863.549804688 697.293945312 863.549804688 697.293945312 751.331054688 c 6,51,-1
 697.293945312 745.424804688 l 5,52,-1
 195.262695312 745.424804688 l 5,53,-1
 195.262695312 764.325195312 l 6,54,55
 195.262695312 1104.52441406 195.262695312 1104.52441406 534.28125 1363.21875 c 4,56,57
 555.543945312 1378.57519531 555.543945312 1378.57519531 577.987304688 1392.75 c 5,58,-1
 826.049804688 960.412109375 l 5,59,60
 817.78125 955.6875 817.78125 955.6875 809.512695312 949.78125 c 4,49,50
1580.86914062 1124.60644531 m 5,61,62
 1693.08789062 953.325195312 1693.08789062 953.325195312 1696.63183594 745.424804688 c 5,63,-1
 1193.41894531 745.424804688 l 5,64,65
 1192.23730469 815.118164062 1192.23730469 815.118164062 1155.61914062 869.456054688 c 4,66,67
 1115.45605469 928.518554688 1115.45605469 928.518554688 1064.66308594 958.049804688 c 5,68,-1
 1312.72558594 1388.02441406 l 5,69,70
 1460.38183594 1294.70605469 1460.38183594 1294.70605469 1580.86914062 1124.60644531 c 5,61,62
941.8125 934.424804688 m 4,71,72
 1038.67480469 934.424804688 1038.67480469 934.424804688 1104.82519531 839.924804688 c 4,73,74
 1134.35644531 796.21875 1134.35644531 796.21875 1134.35644531 741.880859375 c 4,75,76
 1134.35644531 658.012695312 1134.35644531 658.012695312 1054.03125 594.224609375 c 4,77,78
 1005.60058594 557.606445312 1005.60058594 557.606445312 951.262695312 557.606445312 c 6,79,-1
 942.994140625 557.606445312 l 6,80,81
 848.494140625 557.606445312 848.494140625 557.606445312 781.163085938 654.46875 c 5,82,83
 757.538085938 698.174804688 757.538085938 698.174804688 757.538085938 743.0625 c 6,84,-1
 757.538085938 748.96875 l 6,85,86
 757.538085938 835.200195312 757.538085938 835.200195312 842.587890625 901.349609375 c 4,87,88
 888.65625 934.424804688 888.65625 934.424804688 941.8125 934.424804688 c 4,71,72
EndSplineSet
EndChar

StartChar: braceright
Encoding: 125 125 92
Width: 2135
GlyphClass: 2
Flags: W
LayerCount: 2
Fore
SplineSet
642 1021 m 0,0,1
 642 1080 642 1080 682.5 1120.5 c 128,-1,2
 723 1161 723 1161 782 1161 c 0,3,4
 840 1161 840 1161 881 1120.5 c 128,-1,5
 922 1080 922 1080 922 1021 c 128,-1,6
 922 962 922 962 881 921 c 128,-1,7
 840 880 840 880 782 880 c 0,8,9
 723 880 723 880 682.5 921.5 c 128,-1,10
 642 963 642 963 642 1021 c 0,0,1
1220 1021 m 0,11,12
 1220 1080 1220 1080 1261 1120.5 c 128,-1,13
 1302 1161 1302 1161 1360 1161 c 128,-1,14
 1418 1161 1418 1161 1459.5 1120.5 c 128,-1,15
 1501 1080 1501 1080 1501 1021 c 0,16,17
 1501 963 1501 963 1459.5 921.5 c 128,-1,18
 1418 880 1418 880 1360 880 c 0,19,20
 1301 880 1301 880 1260.5 921.5 c 128,-1,21
 1220 963 1220 963 1220 1021 c 0,11,12
170 746 m 0,22,23
 170 1119 170 1119 433 1382.5 c 128,-1,24
 696 1646 696 1646 1068 1646 c 0,25,26
 1441 1646 1441 1646 1703 1382.5 c 128,-1,27
 1965 1119 1965 1119 1965 746 c 0,28,29
 1965 374 1965 374 1703 112 c 128,-1,30
 1441 -150 1441 -150 1068 -150 c 0,31,32
 696 -150 696 -150 433 112 c 128,-1,33
 170 374 170 374 170 746 c 0,22,23
305 746 m 0,34,35
 305 430 305 430 528.5 207.5 c 128,-1,36
 752 -15 752 -15 1068 -15 c 0,37,38
 1385 -15 1385 -15 1607.5 207.5 c 128,-1,39
 1830 430 1830 430 1830 746 c 0,40,41
 1830 1063 1830 1063 1607.5 1287 c 128,-1,42
 1385 1511 1385 1511 1068 1511 c 0,43,44
 752 1511 752 1511 528.5 1287 c 128,-1,45
 305 1063 305 1063 305 746 c 0,34,35
541 332 m 1,46,47
 577 388 577 388 628 439 c 0,48,49
 810 620 810 620 1068 620 c 128,-1,50
 1326 620 1326 620 1508 439 c 0,51,52
 1558 388 1558 388 1595 332 c 1,53,-1
 1480 260 l 1,54,55
 1451 304 1451 304 1412 343 c 0,56,57
 1270 485 1270 485 1068 485 c 128,-1,58
 866 485 866 485 724 344 c 0,59,60
 684 304 684 304 656 261 c 1,61,-1
 541 332 l 1,46,47
EndSplineSet
EndChar

StartChar: asciitilde
Encoding: 126 126 93
Width: 2135
GlyphClass: 2
Flags: W
LayerCount: 2
Fore
SplineSet
642 1021 m 0,0,1
 642 1080 642 1080 682.5 1120.5 c 128,-1,2
 723 1161 723 1161 782 1161 c 0,3,4
 840 1161 840 1161 881 1120.5 c 128,-1,5
 922 1080 922 1080 922 1021 c 128,-1,6
 922 962 922 962 881 921 c 128,-1,7
 840 880 840 880 782 880 c 0,8,9
 723 880 723 880 682.5 921.5 c 128,-1,10
 642 963 642 963 642 1021 c 0,0,1
1220 1021 m 0,11,12
 1220 1080 1220 1080 1261 1120.5 c 128,-1,13
 1302 1161 1302 1161 1360 1161 c 128,-1,14
 1418 1161 1418 1161 1459.5 1120.5 c 128,-1,15
 1501 1080 1501 1080 1501 1021 c 0,16,17
 1501 963 1501 963 1459.5 921.5 c 128,-1,18
 1418 880 1418 880 1360 880 c 0,19,20
 1301 880 1301 880 1260.5 921.5 c 128,-1,21
 1220 963 1220 963 1220 1021 c 0,11,12
170 746 m 0,22,23
 170 1119 170 1119 433 1382.5 c 128,-1,24
 696 1646 696 1646 1068 1646 c 0,25,26
 1441 1646 1441 1646 1703 1382.5 c 128,-1,27
 1965 1119 1965 1119 1965 746 c 0,28,29
 1965 374 1965 374 1703 112 c 128,-1,30
 1441 -150 1441 -150 1068 -150 c 0,31,32
 696 -150 696 -150 433 112 c 128,-1,33
 170 374 170 374 170 746 c 0,22,23
305 746 m 0,34,35
 305 430 305 430 528.5 207.5 c 128,-1,36
 752 -15 752 -15 1068 -15 c 0,37,38
 1385 -15 1385 -15 1607.5 207.5 c 128,-1,39
 1830 430 1830 430 1830 746 c 0,40,41
 1830 1063 1830 1063 1607.5 1287 c 128,-1,42
 1385 1511 1385 1511 1068 1511 c 0,43,44
 752 1511 752 1511 528.5 1287 c 128,-1,45
 305 1063 305 1063 305 746 c 0,34,35
541 465 m 1,46,-1
 656 536 l 1,47,48
 684 493 684 493 724 454 c 0,49,50
 866 312 866 312 1068 312 c 128,-1,51
 1270 312 1270 312 1412 454 c 0,52,53
 1451 493 1451 493 1480 537 c 1,54,-1
 1595 465 l 1,55,56
 1558 409 1558 409 1508 358 c 0,57,58
 1326 177 1326 177 1068 177 c 128,-1,59
 810 177 810 177 628 358 c 0,60,61
 577 409 577 409 541 465 c 1,46,-1
EndSplineSet
EndChar

StartChar: semicolon
Encoding: 59 59 94
Width: 1506
Flags: W
LayerCount: 2
Fore
SplineSet
930 1615 m 0,0,1
 942 1617 942 1617 970.5 1617.5 c 128,-1,2
 999 1618 999 1618 999 1617 c 0,3,4
 999 1615 999 1615 968 1551 c 0,5,6
 920 1453 920 1453 901 1368 c 0,7,8
 893 1335 893 1335 890.5 1272.5 c 128,-1,9
 888 1210 888 1210 893 1180 c 0,10,11
 897 1151 897 1151 899 1151 c 0,12,13
 902 1151 902 1151 933 1174 c 0,14,15
 1021 1234 1021 1234 1083 1234 c 0,16,17
 1094 1234 1094 1234 1095.5 1232.5 c 128,-1,18
 1097 1231 1097 1231 1095 1223 c 0,19,20
 1076 1149 1076 1149 1070 1071 c 0,21,22
 1058 938 1058 938 1109 835 c 0,23,24
 1123 805 1123 805 1135.5 790.5 c 128,-1,25
 1148 776 1148 776 1205 721 c 0,26,27
 1296 634 1296 634 1345 576.5 c 128,-1,28
 1394 519 1394 519 1426 464 c 0,29,30
 1454 414 1454 414 1469 351.5 c 128,-1,31
 1484 289 1484 289 1479 238 c 0,32,33
 1468 110 1468 110 1406.5 -9 c 128,-1,34
 1345 -128 1345 -128 1247 -212 c 0,35,36
 1106 -333 1106 -333 919 -372.5 c 128,-1,37
 732 -412 732 -412 551 -360 c 0,38,39
 323 -295 323 -295 181.5 -98 c 128,-1,40
 40 99 40 99 18 382 c 0,41,42
 3 573 3 573 78 779 c 128,-1,43
 153 985 153 985 307 1179 c 0,44,45
 347 1229 347 1229 421.5 1303.5 c 128,-1,46
 496 1378 496 1378 544 1416 c 0,47,48
 647 1498 647 1498 750 1551 c 128,-1,49
 853 1604 853 1604 930 1615 c 0,0,1
824 811 m 0,50,51
 827 818 827 818 824 818 c 0,52,53
 781 812 781 812 743 794 c 128,-1,54
 705 776 705 776 659 740 c 0,55,56
 628 716 628 716 585.5 672.5 c 128,-1,57
 543 629 543 629 518 596 c 0,58,59
 401 442 401 442 363 272 c 0,60,61
 354 231 354 231 354 155 c 0,62,63
 354 100 354 100 356 82.5 c 128,-1,64
 358 65 358 65 366 33 c 0,65,66
 387 -46 387 -46 419 -103 c 128,-1,67
 451 -160 451 -160 501 -208 c 0,68,69
 544 -248 544 -248 583 -269 c 0,70,71
 598 -276 598 -276 598 -274 c 0,72,73
 598 -273 598 -273 597 -270 c 0,74,75
 581 -233 581 -233 577.5 -215.5 c 128,-1,76
 574 -198 574 -198 572 -155 c 0,77,78
 571 -97 571 -97 577 -63 c 0,79,80
 604 81 604 81 692 168 c 2,81,-1
 715 191 l 1,82,-1
 715 162 l 2,83,84
 715 126 715 126 733 99 c 128,-1,85
 751 72 751 72 804 28 c 0,86,87
 843 -4 843 -4 867.5 -30 c 128,-1,88
 892 -56 892 -56 906 -80 c 128,-1,89
 920 -104 920 -104 926 -132 c 0,90,91
 944 -207 944 -207 909 -272 c 2,92,-1
 897 -293 l 1,93,-1
 908 -290 l 2,94,95
 921 -287 921 -287 951 -272 c 0,96,97
 1054 -224 1054 -224 1115 -132 c 128,-1,98
 1176 -40 1176 -40 1177 67 c 0,99,100
 1177 102 1177 102 1173 123.5 c 128,-1,101
 1169 145 1169 145 1155 171 c 0,102,103
 1142 198 1142 198 1123.5 220.5 c 128,-1,104
 1105 243 1105 243 1074.5 270 c 128,-1,105
 1044 297 1044 297 989 339 c 0,106,107
 927 388 927 388 898.5 413 c 128,-1,108
 870 438 870 438 849 465 c 0,109,110
 787 542 787 542 786 638 c 0,111,112
 786 719 786 719 824 811 c 0,50,51
EndSplineSet
EndChar
